<svg xmlns="http://www.w3.org/2000/svg" viewBox="0 0 1536 1024" role="img" width="1536" height="1024">
  <title>David Beckham joins LA Galaxy - Retro Pixel Art Banner</title>
  
  <defs>
    <radialGradient id="crt" cx="50%" cy="50%" r="70%">
      <stop offset="0%" stop-color="#1a0a3a" />
      <stop offset="100%" stop-color="#000010" />
    </radialGradient>
    <filter id="glow">
      <feGaussianBlur stdDeviation="4" result="blur" />
      <feMerge><feMergeNode in="blur" /><feMergeNode in="SourceGraphic" /></feMerge>
    </filter>
    <pattern id="scanlines" width="1" height="4" patternUnits="userSpaceOnUse">
      <rect width="1" height="2" fill="rgba(0,0,0,0.3)" />
    </pattern>
  </defs>

  
  <rect width="1536" height="1024" fill="url(#crt)" />
  
  
  <rect x="50" y="80" width="4" height="4" fill="#ffffff" opacity="0.6" />
  <rect x="200" y="150" width="4" height="4" fill="#ffffff" opacity="0.4" />
  <rect x="400" y="60" width="4" height="4" fill="#ffff00" opacity="0.6" />
  <rect x="700" y="120" width="4" height="4" fill="#ffffff" opacity="0.5" />
  <rect x="1100" y="70" width="4" height="4" fill="#ffff00" opacity="0.7" />
  <rect x="1400" y="130" width="4" height="4" fill="#ffffff" opacity="0.5" />
  <rect x="1480" y="50" width="4" height="4" fill="#ffffff" opacity="0.4" />
  <rect x="900" y="900" width="4" height="4" fill="#ffffff" opacity="0.5" />
  <rect x="300" y="920" width="4" height="4" fill="#ffff00" opacity="0.4" />
  <rect x="1300" y="880" width="4" height="4" fill="#ffffff" opacity="0.6" />
  <rect x="100" y="800" width="4" height="4" fill="#ffffff" opacity="0.3" />
  <rect x="1500" y="700" width="4" height="4" fill="#ffff00" opacity="0.4" />

  
  
  <rect x="0" y="680" width="1536" height="344" fill="#0a4a0a" />
  
  <rect x="0" y="680" width="192" height="344" fill="#0a5a0a" />
  <rect x="384" y="680" width="192" height="344" fill="#0a5a0a" />
  <rect x="768" y="680" width="192" height="344" fill="#0a5a0a" />
  <rect x="1152" y="680" width="192" height="344" fill="#0a5a0a" />
  
  <rect x="0" y="680" width="1536" height="8" fill="#ffffff" opacity="0.8" />
  
  <rect x="740" y="700" width="8" height="8" fill="#ffffff" opacity="0.6" />
  <rect x="748" y="696" width="40" height="8" fill="#ffffff" opacity="0.6" />
  <rect x="748" y="756" width="40" height="8" fill="#ffffff" opacity="0.6" />
  <rect x="732" y="704" width="8" height="52" fill="#ffffff" opacity="0.6" />
  <rect x="796" y="704" width="8" height="52" fill="#ffffff" opacity="0.6" />
  
  <rect x="764" y="728" width="8" height="8" fill="#ffffff" />
  
  <rect x="550" y="680" width="8" height="120" fill="#ffffff" opacity="0.5" />
  <rect x="978" y="680" width="8" height="120" fill="#ffffff" opacity="0.5" />
  <rect x="550" y="792" width="436" height="8" fill="#ffffff" opacity="0.5" />

  
  
  <rect x="1100" y="560" width="16" height="160" fill="#c8c8c8" />
  <rect x="1350" y="560" width="16" height="160" fill="#c8c8c8" />
  <rect x="1100" y="560" width="266" height="16" fill="#c8c8c8" />
  
  <rect x="1116" y="576" width="234" height="4" fill="#888888" opacity="0.6" />
  <rect x="1116" y="596" width="234" height="4" fill="#888888" opacity="0.6" />
  <rect x="1116" y="616" width="234" height="4" fill="#888888" opacity="0.6" />
  <rect x="1116" y="636" width="234" height="4" fill="#888888" opacity="0.6" />
  <rect x="1116" y="656" width="234" height="4" fill="#888888" opacity="0.6" />
  <rect x="1136" y="576" width="4" height="144" fill="#888888" opacity="0.6" />
  <rect x="1176" y="576" width="4" height="144" fill="#888888" opacity="0.6" />
  <rect x="1216" y="576" width="4" height="144" fill="#888888" opacity="0.6" />
  <rect x="1256" y="576" width="4" height="144" fill="#888888" opacity="0.6" />
  <rect x="1296" y="576" width="4" height="144" fill="#888888" opacity="0.6" />
  <rect x="1336" y="576" width="4" height="144" fill="#888888" opacity="0.6" />

  
  
  <rect x="580" y="360" width="64" height="64" fill="#e8b88a" />
  
  <rect x="580" y="360" width="64" height="16" fill="#8B6914" />
  <rect x="580" y="376" width="8" height="8" fill="#8B6914" />
  <rect x="636" y="376" width="8" height="8" fill="#8B6914" />
  
  <rect x="596" y="388" width="8" height="8" fill="#2a1a0a" />
  <rect x="620" y="388" width="8" height="8" fill="#2a1a0a" />
  
  <rect x="604" y="408" width="16" height="4" fill="#c07050" />
  
  
  <rect x="564" y="424" width="96" height="96" fill="#ffffff" />
  
  <rect x="588" y="440" width="8" height="32" fill="#1a3a6a" />
  <rect x="580" y="440" width="8" height="8" fill="#1a3a6a" />
  <rect x="580" y="456" width="8" height="8" fill="#1a3a6a" />
  <rect x="596" y="456" width="8" height="8" fill="#1a3a6a" />
  
  <rect x="524" y="424" width="40" height="72" fill="#ffffff" />
  <rect x="660" y="424" width="40" height="72" fill="#ffffff" />
  
  <rect x="516" y="488" width="24" height="24" fill="#e8b88a" />
  <rect x="684" y="488" width="24" height="24" fill="#e8b88a" />
  
  
  <rect x="564" y="520" width="40" height="80" fill="#1a3a6a" />
  <rect x="620" y="520" width="40" height="80" fill="#1a3a6a" />
  
  <rect x="564" y="580" width="40" height="32" fill="#ffffff" />
  <rect x="620" y="580" width="40" height="32" fill="#ffffff" />
  <rect x="556" y="604" width="56" height="16" fill="#222222" />
  <rect x="612" y="604" width="56" height="16" fill="#222222" />

  
  <rect x="696" y="580" width="64" height="64" fill="#ffffff" />
  
  <rect x="704" y="580" width="16" height="16" fill="#222222" />
  <rect x="736" y="580" width="16" height="16" fill="#222222" />
  <rect x="720" y="596" width="16" height="16" fill="#222222" />
  <rect x="696" y="612" width="16" height="16" fill="#222222" />
  <rect x="744" y="612" width="16" height="16" fill="#222222" />
  <rect x="704" y="628" width="16" height="16" fill="#222222" />
  <rect x="736" y="628" width="16" height="16" fill="#222222" />

  
  <rect x="760" y="600" width="8" height="8" fill="#ffff00" opacity="0.7" />
  <rect x="772" y="596" width="8" height="8" fill="#ffff00" opacity="0.5" />
  <rect x="784" y="592" width="8" height="8" fill="#ffff00" opacity="0.3" />
  <rect x="796" y="588" width="8" height="8" fill="#ffff00" opacity="0.2" />

  
  <rect x="80" y="300" width="120" height="120" fill="#6a0010" opacity="0.5" />
  <rect x="84" y="304" width="112" height="112" fill="#8a0015" opacity="0.5" />
  
  <rect x="96" y="308" width="88" height="16" fill="#ffd700" opacity="0.5" />
  <rect x="100" y="292" width="8" height="16" fill="#ffd700" opacity="0.5" />
  <rect x="120" y="288" width="8" height="20" fill="#ffd700" opacity="0.5" />
  <rect x="140" y="284" width="8" height="24" fill="#ffd700" opacity="0.5" />
  <rect x="160" y="288" width="8" height="20" fill="#ffd700" opacity="0.5" />
  <rect x="RM" y="0" width="0" height="0" />
  
  <rect x="216" y="352" width="48" height="16" fill="#ff4444" opacity="0.8" />
  <rect x="256" y="336" width="16" height="48" fill="#ff4444" opacity="0.8" />
  <rect x="272" y="344" width="16" height="32" fill="#ff4444" opacity="0.0" />
  
  <rect x="264" y="328" width="32" height="8" fill="#ff4444" opacity="0.8" />
  <rect x="272" y="320" width="16" height="8" fill="#ff4444" opacity="0.8" />
  <rect x="280" y="312" width="8" height="8" fill="#ff4444" opacity="0.8" />
  <rect x="264" y="384" width="32" height="8" fill="#ff4444" opacity="0.8" />
  <rect x="272" y="392" width="16" height="8" fill="#ff4444" opacity="0.8" />
  <rect x="280" y="400" width="8" height="8" fill="#ff4444" opacity="0.8" />
  <rect x="256" y="336" width="8" height="8" fill="#ff4444" opacity="0.8" />
  <rect x="248" y="344" width="8" height="16" fill="#ff4444" opacity="0.8" />
  <rect x="248" y="352" width="8" height="0" fill="#ff4444" opacity="0.8" />

  
  
  <rect x="1300" y="200" width="160" height="160" fill="#1a2a6a" />
  <rect x="1308" y="208" width="144" height="144" fill="#1e3080" />
  
  <rect x="1368" y="220" width="24" height="24" fill="#ffd700" />
  <rect x="1360" y="244" width="40" height="8" fill="#ffd700" />
  <rect x="1348" y="252" width="64" height="24" fill="#ffd700" />
  <rect x="1360" y="276" width="40" height="8" fill="#ffd700" />
  <rect x="1364" y="284" width="16" height="24" fill="#ffd700" />
  <rect x="1356" y="248" width="8" height="8" fill="#ffd700" />
  <rect x="1396" y="248" width="8" height="8" fill="#ffd700" />
  
  <rect x="1316" y="310" width="8" height="32" fill="#ffd700" />
  <rect x="1316" y="334" width="24" height="8" fill="#ffd700" />
  <rect x="1348" y="310" width="8" height="32" fill="#ffd700" />
  <rect x="1356" y="318" width="8" height="8" fill="#ffd700" />
  <rect x="1356" y="334" width="8" height="8" fill="#ffd700" />
  <rect x="1364" y="310" width="8" height="32" fill="#ffd700" />

  
  <rect x="80" y="760" width="80" height="80" fill="#c8102e" />
  <rect x="84" y="764" width="72" height="72" fill="#c8102e" />
  <rect x="88" y="768" width="16" height="64" fill="#ffffff" />
  <rect x="104" y="768" width="8" height="64" fill="#c8102e" />
  <rect x="112" y="768" width="16" height="64" fill="#ffffff" />
  <rect x="128" y="768" width="16" height="64" fill="#232b56" />
  <rect x="144" y="768" width="8" height="64" fill="#ffd700" />

  
  <rect x="0" y="0" width="1536" height="1024" fill="url(#scanlines)" opacity="0.4" />

  
  <rect x="0" y="0" width="1536" height="1024" fill="radial-gradient" opacity="0" />
  <ellipse cx="768" cy="512" rx="900" ry="600" fill="none" stroke="#000020" stroke-width="300" opacity="0.6" />

  
  <rect x="900" y="280" width="48" height="48" fill="#ffd700" />
  <rect x="904" y="284" width="40" height="40" fill="#ffaa00" />
  <rect x="916" y="288" width="16" height="8" fill="#ffd700" />
  <rect x="920" y="296" width="8" height="24" fill="#ffd700" />
  <rect x="916" y="316" width="16" height="8" fill="#ffd700" />
  
  <rect x="960" y="260" width="48" height="48" fill="#ffd700" />
  <rect x="964" y="264" width="40" height="40" fill="#ffaa00" />
  <rect x="976" y="268" width="16" height="8" fill="#ffd700" />
  <rect x="980" y="276" width="8" height="24" fill="#ffd700" />
  <rect x="976" y="296" width="16" height="8" fill="#ffd700" />

  <rect x="1020" y="270" width="48" height="48" fill="#ffd700" />
  <rect x="1024" y="274" width="40" height="40" fill="#ffaa00" />
  <rect x="1036" y="278" width="16" height="8" fill="#ffd700" />
  <rect x="1040" y="286" width="8" height="24" fill="#ffd700" />
  <rect x="1036" y="306" width="16" height="8" fill="#ffd700" />

  
  <text x="900" y="250" font-family="monospace" font-size="28" font-weight="bold" fill="#ffd700" filter="url(#glow)" letter-spacing="2">$250M</text>

  
  
  <text x="140" y="160" font-family="monospace" font-size="88" font-weight="bold" fill="#00ffff" opacity="0.3" letter-spacing="4">DAVID BECKHAM</text>
  <text x="140" y="270" font-family="monospace" font-size="72" font-weight="bold" fill="#00ffff" opacity="0.3" letter-spacing="4">JOINS LA GALAXY</text>
  
  
  <text x="136" y="156" font-family="monospace" font-size="88" font-weight="bold" fill="#ffffff" filter="url(#glow)" letter-spacing="4">DAVID BECKHAM</text>
  <text x="136" y="266" font-family="monospace" font-size="72" font-weight="bold" fill="#ffd700" filter="url(#glow)" letter-spacing="4">JOINS LA GALAXY</text>

  
  <text x="140" y="330" font-family="monospace" font-size="32" fill="#00ff88" filter="url(#glow)" letter-spacing="2">JAN 11, 2007  •  5-YEAR CONTRACT  •  MLS</text>

  
  <rect x="0" y="0" width="1536" height="16" fill="#00ffff" opacity="0.4" />
  <rect x="0" y="16" width="1536" height="8" fill="#0088ff" opacity="0.4" />
  
  <rect x="0" y="1000" width="1536" height="16" fill="#00ffff" opacity="0.4" />
  <rect x="0" y="992" width="1536" height="8" fill="#0088ff" opacity="0.4" />
  
  <rect x="0" y="0" width="16" height="1024" fill="#00ffff" opacity="0.3" />
  <rect x="1520" y="0" width="16" height="1024" fill="#00ffff" opacity="0.3" />

  
  <rect x="16" y="16" width="32" height="32" fill="#ffd700" opacity="0.8" />
  <rect x="1488" y="16" width="32" height="32" fill="#ffd700" opacity="0.8" />
  <rect x="16" y="976" width="32" height="32" fill="#ffd700" opacity="0.8" />
  <rect x="1488" y="976" width="32" height="32" fill="#ffd700" opacity="0.8" />

  
  <text x="140" y="980" font-family="monospace" font-size="24" fill="#ff88ff" opacity="0.8" letter-spacing="2">1UP  REAL MADRID → LA GALAXY  LEVEL: MLS  YEAR: 2007</text>

  
  <rect x="0" y="680" width="16" height="32" fill="#ff4444" opacity="0.6" />
  <rect x="24" y="672" width="16" height="40" fill="#4444ff" opacity="0.6" />
  <rect x="48" y="676" width="16" height="36" fill="#ffffff" opacity="0.6" />
  <rect x="72" y="668" width="16" height="44" fill="#ffff44" opacity="0.6" />
  <rect x="96" y="672" width="16" height="40" fill="#ff44ff" opacity="0.6" />
  <rect x="120" y="676" width="16" height="36" fill="#44ffff" opacity="0.6" />
  <rect x="1400" y="676" width="16" height="36" fill="#ff4444" opacity="0.6" />
  <rect x="1420" y="668" width="16" height="44" fill="#ffffff" opacity="0.6" />
  <rect x="1440" y="672" width="16" height="40" fill="#4444ff" opacity="0.6" />
  <rect x="1460" y="676" width="16" height="36" fill="#ffff44" opacity="0.6" />
  <rect x="1480" y="668" width="16" height="44" fill="#ff44ff" opacity="0.6" />
  <rect x="1500" y="672" width="16" height="40" fill="#44ff44" opacity="0.6" />

</svg>