<svg xmlns="http://www.w3.org/2000/svg" viewBox="0 0 1536 1024" role="img" width="1536" height="1024">
  <title>New England Patriots Achieve 16-0 NFL Regular Season - Retro Pixel Art Banner</title>
  
  <defs>
    <radialGradient id="crt" cx="50%" cy="50%" r="70%">
      <stop offset="0%" stop-color="#1a0a2e" />
      <stop offset="100%" stop-color="#000510" />
    </radialGradient>
    <filter id="glow">
      <feGaussianBlur stdDeviation="3" result="blur" />
      <feMerge><feMergeNode in="blur" /><feMergeNode in="SourceGraphic" /></feMerge>
    </filter>
    
    <pattern id="scanlines" x="0" y="0" width="4" height="4" patternUnits="userSpaceOnUse">
      <rect width="4" height="2" fill="rgba(0,0,0,0.3)" />
    </pattern>
  </defs>

  
  <rect width="1536" height="1024" fill="url(#crt)" />
  
  
  
  <rect x="0" y="600" width="1536" height="424" fill="#0a3d0a" />
  
  <rect x="0" y="600" width="1536" height="32" fill="#0d4a0d" />
  <rect x="0" y="664" width="1536" height="32" fill="#0d4a0d" />
  <rect x="0" y="728" width="1536" height="32" fill="#0d4a0d" />
  <rect x="0" y="792" width="1536" height="32" fill="#0d4a0d" />
  <rect x="0" y="856" width="1536" height="32" fill="#0d4a0d" />
  <rect x="0" y="920" width="1536" height="32" fill="#0d4a0d" />
  <rect x="0" y="984" width="1536" height="32" fill="#0d4a0d" />

  
  <rect x="0" y="600" width="1536" height="8" fill="#ffffff" />
  <rect x="0" y="680" width="1536" height="8" fill="#ffffff" opacity="0.6" />
  <rect x="0" y="760" width="1536" height="8" fill="#ffffff" opacity="0.6" />
  <rect x="0" y="840" width="1536" height="8" fill="#ffffff" opacity="0.6" />
  <rect x="0" y="920" width="1536" height="8" fill="#ffffff" opacity="0.6" />
  <rect x="0" y="1016" width="1536" height="8" fill="#ffffff" />

  
  <rect x="0" y="600" width="200" height="424" fill="#0a1f6e" />
  
  <rect x="1336" y="600" width="200" height="424" fill="#c8102e" />

  
  <rect x="48" y="32" width="8" height="8" fill="#ffffff" opacity="0.9" />
  <rect x="128" y="80" width="8" height="8" fill="#ffffff" opacity="0.7" />
  <rect x="240" y="48" width="8" height="8" fill="#ffffff" opacity="0.9" />
  <rect x="320" y="96" width="8" height="8" fill="#ffffff" opacity="0.6" />
  <rect x="400" y="24" width="8" height="8" fill="#ffffff" opacity="0.8" />
  <rect x="500" y="64" width="8" height="8" fill="#ffffff" opacity="0.7" />
  <rect x="600" y="32" width="8" height="8" fill="#ffffff" opacity="0.9" />
  <rect x="700" y="80" width="8" height="8" fill="#ffffff" opacity="0.6" />
  <rect x="800" y="40" width="8" height="8" fill="#ffffff" opacity="0.8" />
  <rect x="900" y="88" width="8" height="8" fill="#ffffff" opacity="0.7" />
  <rect x="1000" y="24" width="8" height="8" fill="#ffffff" opacity="0.9" />
  <rect x="1100" y="64" width="8" height="8" fill="#ffffff" opacity="0.6" />
  <rect x="1200" y="40" width="8" height="8" fill="#ffffff" opacity="0.8" />
  <rect x="1300" y="88" width="8" height="8" fill="#ffffff" opacity="0.7" />
  <rect x="1400" y="32" width="8" height="8" fill="#ffffff" opacity="0.9" />
  <rect x="1480" y="72" width="8" height="8" fill="#ffffff" opacity="0.6" />
  <rect x="80" y="160" width="8" height="8" fill="#ffffff" opacity="0.5" />
  <rect x="192" y="200" width="8" height="8" fill="#ffffff" opacity="0.6" />
  <rect x="350" y="180" width="8" height="8" fill="#ffffff" opacity="0.4" />
  <rect x="680" y="140" width="8" height="8" fill="#ffffff" opacity="0.5" />
  <rect x="1050" y="170" width="8" height="8" fill="#ffffff" opacity="0.6" />
  <rect x="1350" y="150" width="8" height="8" fill="#ffffff" opacity="0.5" />
  <rect x="1450" y="200" width="8" height="8" fill="#ffffff" opacity="0.4" />

  
  
  <rect x="680" y="420" width="16" height="16" fill="#c8102e" /> 
  <rect x="676" y="432" width="24" height="8" fill="#c8102e" /> 
  <rect x="684" y="436" width="8" height="4" fill="#b0b0b0" /> 
  <rect x="676" y="448" width="24" height="32" fill="#0a1f6e" /> 
  <rect x="660" y="448" width="16" height="24" fill="#0a1f6e" /> 
  <rect x="692" y="448" width="16" height="24" fill="#0a1f6e" /> 
  <rect x="644" y="440" width="16" height="16" fill="#0a1f6e" /> 
  <rect x="628" y="432" width="16" height="16" fill="#0a1f6e" /> 
  <rect x="612" y="424" width="16" height="16" fill="#0a1f6e" /> 
  <rect x="596" y="416" width="16" height="16" fill="#c8a000" /> 
  <rect x="680" y="480" width="24" height="32" fill="#c8c8c8" /> 
  <rect x="680" y="512" width="16" height="16" fill="#ffffff" /> 
  <rect x="696" y="512" width="16" height="16" fill="#ffffff" /> 
  <rect x="680" y="528" width="16" height="16" fill="#c8102e" /> 
  <rect x="696" y="528" width="16" height="16" fill="#c8102e" /> 

  
  <rect x="960" y="420" width="16" height="16" fill="#c8102e" /> 
  <rect x="956" y="432" width="24" height="8" fill="#c8102e" />
  <rect x="964" y="436" width="8" height="4" fill="#b0b0b0" />
  <rect x="956" y="448" width="24" height="32" fill="#0a1f6e" /> 
  <rect x="980" y="432" width="16" height="32" fill="#0a1f6e" /> 
  <rect x="996" y="416" width="16" height="32" fill="#0a1f6e" />
  <rect x="1012" y="408" width="16" height="16" fill="#0a1f6e" />
  <rect x="956" y="480" width="24" height="32" fill="#c8c8c8" />
  <rect x="956" y="512" width="16" height="16" fill="#ffffff" />
  <rect x="972" y="512" width="16" height="16" fill="#ffffff" />
  <rect x="956" y="528" width="16" height="16" fill="#c8102e" />
  <rect x="972" y="528" width="16" height="16" fill="#c8102e" />

  
  <rect x="624" y="400" width="24" height="16" fill="#c8a000" />
  <rect x="628" y="396" width="4" height="4" fill="#8B6914" />
  <rect x="636" y="392" width="4" height="4" fill="#8B6914" />
  <rect x="680" y="376" width="8" height="8" fill="#c8a000" opacity="0.7" />
  <rect x="720" y="368" width="8" height="8" fill="#c8a000" opacity="0.6" />
  <rect x="760" y="364" width="8" height="8" fill="#c8a000" opacity="0.5" />
  <rect x="800" y="364" width="8" height="8" fill="#c8a000" opacity="0.4" />
  <rect x="840" y="368" width="8" height="8" fill="#c8a000" opacity="0.5" />
  <rect x="880" y="376" width="8" height="8" fill="#c8a000" opacity="0.6" />
  <rect x="920" y="388" width="8" height="8" fill="#c8a000" opacity="0.7" />

  
  <rect x="560" y="80" width="416" height="280" fill="#111111" rx="0" />
  <rect x="568" y="88" width="400" height="264" fill="#1a1a1a" rx="0" />
  
  <rect x="560" y="80" width="416" height="16" fill="#333333" />
  <rect x="560" y="344" width="416" height="16" fill="#333333" />
  <rect x="560" y="80" width="16" height="280" fill="#333333" />
  <rect x="960" y="80" width="16" height="280" fill="#333333" />

  
  
  <text x="640" y="140" font-family="monospace" font-size="28" fill="#c8102e" font-weight="bold" letter-spacing="2">NE</text>
  <text x="840" y="140" font-family="monospace" font-size="28" fill="#004C97" font-weight="bold" letter-spacing="2">NYG</text>
  
  
  <text x="632" y="220" font-family="monospace" font-size="64" fill="#00ff41" font-weight="bold">38</text>
  <text x="760" y="220" font-family="monospace" font-size="48" fill="#ffffff" font-weight="bold">-</text>
  <text x="820" y="220" font-family="monospace" font-size="64" fill="#ffff00" font-weight="bold">35</text>
  
  
  <text x="620" y="268" font-family="monospace" font-size="18" fill="#aaaaaa">WEEK 17  DEC 29 2007</text>
  
  
  <text x="660" y="110" font-family="monospace" font-size="14" fill="#888888">FINAL SCORE</text>

  
  
  <rect x="1300" y="120" width="16" height="8" fill="#ffd700" />
  <rect x="1292" y="128" width="32" height="8" fill="#ffd700" />
  <rect x="1284" y="136" width="48" height="8" fill="#ffd700" />
  <rect x="1276" y="144" width="64" height="8" fill="#ffd700" />
  <rect x="1268" y="152" width="80" height="8" fill="#ffd700" />
  <rect x="1268" y="160" width="80" height="8" fill="#ffd700" />
  <rect x="1268" y="168" width="80" height="8" fill="#ffd700" />
  <rect x="1276" y="176" width="64" height="8" fill="#ffd700" />
  <rect x="1284" y="184" width="48" height="8" fill="#ffd700" />
  <rect x="1284" y="192" width="48" height="8" fill="#ffd700" />
  
  <rect x="1252" y="152" width="16" height="24" fill="#ffd700" />
  <rect x="1348" y="152" width="16" height="24" fill="#ffd700" />
  <rect x="1244" y="160" width="8" height="8" fill="#ffd700" />
  <rect x="1364" y="160" width="8" height="8" fill="#ffd700" />
  
  <rect x="1300" y="200" width="16" height="24" fill="#ffd700" />
  
  <rect x="1276" y="224" width="64" height="8" fill="#ffd700" />
  <rect x="1268" y="232" width="80" height="8" fill="#ffd700" />
  
  <rect x="1292" y="152" width="8" height="16" fill="#ffe44d" />
  <rect x="1300" y="148" width="4" height="8" fill="#ffe44d" />

  
  
  <rect x="80" y="120" width="16" height="16" fill="#00ff41" />
  <rect x="80" y="136" width="16" height="16" fill="#00ff41" />
  <rect x="80" y="152" width="16" height="16" fill="#00ff41" />
  <rect x="80" y="168" width="16" height="16" fill="#00ff41" />
  <rect x="80" y="184" width="16" height="16" fill="#00ff41" />
  <rect x="80" y="200" width="16" height="16" fill="#00ff41" />
  <rect x="80" y="216" width="16" height="16" fill="#00ff41" />
  <rect x="64" y="136" width="16" height="16" fill="#00ff41" />

  
  <rect x="128" y="120" width="80" height="16" fill="#00ff41" />
  <rect x="112" y="136" width="16" height="16" fill="#00ff41" />
  <rect x="112" y="152" width="16" height="16" fill="#00ff41" />
  <rect x="112" y="168" width="80" height="16" fill="#00ff41" />
  <rect x="112" y="184" width="16" height="16" fill="#00ff41" />
  <rect x="192" y="184" width="16" height="16" fill="#00ff41" />
  <rect x="112" y="200" width="16" height="16" fill="#00ff41" />
  <rect x="192" y="200" width="16" height="16" fill="#00ff41" />
  <rect x="112" y="216" width="96" height="16" fill="#00ff41" />

  
  <rect x="224" y="168" width="48" height="16" fill="#ffffff" />

  
  <rect x="296" y="120" width="80" height="16" fill="#ff4141" />
  <rect x="280" y="136" width="16" height="16" fill="#ff4141" />
  <rect x="376" y="136" width="16" height="16" fill="#ff4141" />
  <rect x="280" y="152" width="16" height="16" fill="#ff4141" />
  <rect x="376" y="152" width="16" height="16" fill="#ff4141" />
  <rect x="280" y="168" width="16" height="16" fill="#ff4141" />
  <rect x="376" y="168" width="16" height="16" fill="#ff4141" />
  <rect x="280" y="184" width="16" height="16" fill="#ff4141" />
  <rect x="376" y="184" width="16" height="16" fill="#ff4141" />
  <rect x="280" y="200" width="16" height="16" fill="#ff4141" />
  <rect x="376" y="200" width="16" height="16" fill="#ff4141" />
  <rect x="296" y="216" width="80" height="16" fill="#ff4141" />

  
  <text x="68" y="268" font-family="monospace" font-size="20" fill="#ffd700" font-weight="bold" letter-spacing="3">PERFECT SEASON</text>

  
  <rect x="0" y="545" width="1536" height="70" fill="rgba(0,0,0,0.7)" />
  <text x="768" y="568" font-family="monospace" font-size="32" fill="#00ff41" font-weight="bold" text-anchor="middle" letter-spacing="2">NEW ENGLAND PATRIOTS</text>
  <text x="768" y="604" font-family="monospace" font-size="24" fill="#ffffff" font-weight="bold" text-anchor="middle" letter-spacing="1">ACHIEVE 16-0 NFL REGULAR SEASON</text>

  
  <rect x="0" y="940" width="1536" height="84" fill="rgba(0,5,16,0.9)" />
  <rect x="0" y="940" width="1536" height="4" fill="#00ff41" />
  
  <text x="80" y="975" font-family="monospace" font-size="18" fill="#ffd700" font-weight="bold">BRADY QB</text>
  <text x="80" y="1000" font-family="monospace" font-size="14" fill="#aaaaaa">589 PTS SEASON</text>
  
  <rect x="260" y="948" width="4" height="72" fill="#333333" />
  
  <text x="300" y="975" font-family="monospace" font-size="18" fill="#ffd700" font-weight="bold">MOSS WR</text>
  <text x="300" y="1000" font-family="monospace" font-size="14" fill="#aaaaaa">23 TD REC RECORD</text>
  
  <rect x="520" y="948" width="4" height="72" fill="#333333" />
  
  <text x="560" y="975" font-family="monospace" font-size="18" fill="#ffd700" font-weight="bold">WELKER WR</text>
  <text x="560" y="1000" font-family="monospace" font-size="14" fill="#aaaaaa">112 REC LEAGUE LEAD</text>
  
  <rect x="820" y="948" width="4" height="72" fill="#333333" />
  
  <text x="860" y="975" font-family="monospace" font-size="18" fill="#ffd700" font-weight="bold">BELICHICK HC</text>
  <text x="860" y="1000" font-family="monospace" font-size="14" fill="#aaaaaa">16-0 UNDEFEATED</text>
  
  <rect x="1100" y="948" width="4" height="72" fill="#333333" />
  
  <text x="1140" y="975" font-family="monospace" font-size="18" fill="#ffd700" font-weight="bold">POINT DIFF</text>
  <text x="1140" y="1000" font-family="monospace" font-size="14" fill="#aaaaaa">+315  AVG +19.7/GM</text>
  
  <rect x="1380" y="948" width="4" height="72" fill="#333333" />
  
  <text x="1420" y="975" font-family="monospace" font-size="18" fill="#ffd700" font-weight="bold">DEC 29</text>
  <text x="1420" y="1000" font-family="monospace" font-size="14" fill="#aaaaaa">2007</text>

  
  <rect width="1536" height="1024" fill="url(#scanlines)" opacity="0.4" />
  
  
  <radialGradient id="vignette" cx="50%" cy="50%" r="70%">
    <stop offset="60%" stop-color="transparent" />
    <stop offset="100%" stop-color="rgba(0,0,0,0.6)" />
  </radialGradient>
  <rect width="1536" height="1024" fill="url(#vignette)" />

  
  <rect x="16" y="16" width="48" height="8" fill="#c8102e" />
  <rect x="16" y="16" width="8" height="48" fill="#c8102e" />
  <rect x="1472" y="16" width="48" height="8" fill="#c8102e" />
  <rect x="1512" y="16" width="8" height="48" fill="#c8102e" />
  <rect x="16" y="1000" width="48" height="8" fill="#c8102e" />
  <rect x="16" y="960" width="8" height="48" fill="#c8102e" />
  <rect x="1472" y="1000" width="48" height="8" fill="#c8102e" />
  <rect x="1512" y="960" width="8" height="48" fill="#c8102e" />

</svg>