<svg xmlns="http://www.w3.org/2000/svg" viewBox="0 0 1536 1024" role="img" width="1536" height="1024">
  <title>Scooter Libby's Sentence Commuted by President Bush – Retro Pixel Art Banner</title>

  <defs>
    <radialGradient id="crt" cx="50%" cy="50%" r="70%">
      <stop offset="0%" stop-color="#1a0a2e" />
      <stop offset="100%" stop-color="#050008" />
    </radialGradient>
    <filter id="glow">
      <feGaussianBlur stdDeviation="3" result="blur" />
      <feMerge><feMergeNode in="blur" /><feMergeNode in="SourceGraphic" /></feMerge>
    </filter>
    <pattern id="scanlines" x="0" y="0" width="4" height="4" patternUnits="userSpaceOnUse">
      <rect width="4" height="1" y="0" fill="rgba(0,0,0,0.18)" />
    </pattern>
  </defs>

  
  <rect width="1536" height="1024" fill="url(#crt)" />

  
  <rect x="80" y="40" width="8" height="8" fill="#ffffaa" opacity="0.7" />
  <rect x="200" y="80" width="8" height="8" fill="#ffffaa" opacity="0.5" />
  <rect x="400" y="30" width="8" height="8" fill="#ffffaa" opacity="0.6" />
  <rect x="700" y="50" width="8" height="8" fill="#ffffaa" opacity="0.4" />
  <rect x="1000" y="35" width="8" height="8" fill="#ffffaa" opacity="0.7" />
  <rect x="1300" y="60" width="8" height="8" fill="#ffffaa" opacity="0.5" />
  <rect x="1450" y="25" width="8" height="8" fill="#ffffaa" opacity="0.6" />
  <rect x="150" y="150" width="8" height="8" fill="#ffffaa" opacity="0.3" />
  <rect x="1480" y="120" width="8" height="8" fill="#ffffaa" opacity="0.4" />
  <rect x="600" y="90" width="8" height="8" fill="#aaffff" opacity="0.4" />
  <rect x="1100" y="75" width="8" height="8" fill="#aaffff" opacity="0.5" />

  
  <rect x="0" y="820" width="1536" height="204" fill="#0d1f0d" />
  <rect x="0" y="820" width="1536" height="16" fill="#1a3d1a" />

  
  
  <rect x="518" y="480" width="500" height="340" fill="#e8e8d0" />
  
  <rect x="518" y="472" width="500" height="16" fill="#c8c8b0" />
  
  <rect x="590" y="520" width="20" height="300" fill="#f0f0e0" />
  <rect x="640" y="520" width="20" height="300" fill="#f0f0e0" />
  <rect x="690" y="520" width="20" height="300" fill="#f0f0e0" />
  <rect x="740" y="520" width="20" height="300" fill="#f0f0e0" />
  <rect x="790" y="520" width="20" height="300" fill="#f0f0e0" />
  <rect x="840" y="520" width="20" height="300" fill="#f0f0e0" />
  <rect x="890" y="520" width="20" height="300" fill="#f0f0e0" />
  
  <rect x="570" y="512" width="360" height="16" fill="#d0d0c0" />
  
  <polygon points="570,512 750,430 930,512" fill="#deded0" />
  
  <rect x="670" y="380" width="196" height="100" fill="#d8d8c8" />
  
  <ellipse cx="768" cy="380" rx="90" ry="60" fill="#e0e0d0" />
  <rect x="740" y="300" width="56" height="84" fill="#d0d0c0" />
  
  <rect x="765" y="260" width="6" height="48" fill="#888" />
  <rect x="771" y="260" width="32" height="20" fill="#cc2222" />
  <rect x="771" y="270" width="32" height="6" fill="#f0f0f0" />
  <rect x="771" y="276" width="32" height="4" fill="#cc2222" />
  
  <rect x="560" y="560" width="40" height="56" fill="#3355aa" opacity="0.9" />
  <rect x="936" y="560" width="40" height="56" fill="#3355aa" opacity="0.9" />
  <rect x="620" y="600" width="32" height="44" fill="#3355aa" opacity="0.8" />
  <rect x="884" y="600" width="32" height="44" fill="#3355aa" opacity="0.8" />
  
  <rect x="320" y="580" width="200" height="240" fill="#d8d8c8" />
  <rect x="1016" y="580" width="200" height="240" fill="#d8d8c8" />
  
  <rect x="360" y="620" width="32" height="40" fill="#3355aa" opacity="0.7" />
  <rect x="420" y="620" width="32" height="40" fill="#3355aa" opacity="0.7" />
  <rect x="460" y="620" width="32" height="40" fill="#3355aa" opacity="0.7" />
  <rect x="1048" y="620" width="32" height="40" fill="#3355aa" opacity="0.7" />
  <rect x="1100" y="620" width="32" height="40" fill="#3355aa" opacity="0.7" />
  <rect x="1152" y="620" width="32" height="40" fill="#3355aa" opacity="0.7" />
  
  <rect x="600" y="816" width="336" height="12" fill="#c8c8b8" />
  <rect x="616" y="808" width="304" height="12" fill="#d0d0c0" />

  
  
  <rect x="60" y="380" width="280" height="400" fill="#1a1a2e" rx="4" />
  <rect x="60" y="380" width="280" height="16" fill="#2a2a4e" />
  
  <rect x="88" y="396" width="16" height="368" fill="#888888" />
  <rect x="128" y="396" width="16" height="368" fill="#888888" />
  <rect x="168" y="396" width="16" height="368" fill="#888888" />
  <rect x="208" y="396" width="16" height="368" fill="#888888" />
  <rect x="248" y="396" width="16" height="368" fill="#888888" />
  <rect x="288" y="396" width="16" height="368" fill="#888888" />
  
  <rect x="80" y="560" width="232" height="16" fill="#777777" />
  
  <rect x="180" y="548" width="32" height="40" fill="#ffcc00" filter="url(#glow)" />
  <rect x="188" y="536" width="16" height="16" fill="#ffcc00" />
  <rect x="192" y="524" width="8" height="16" fill="#ffcc00" />
  
  <rect x="168" y="396" width="16" height="140" fill="#ff4444" filter="url(#glow)" />
  <rect x="160" y="532" width="32" height="12" fill="#ff6600" filter="url(#glow)" />
  <rect x="168" y="544" width="16" height="220" fill="#555" opacity="0.5" />
  
  <rect x="152" y="520" width="8" height="8" fill="#ffff00" filter="url(#glow)" />
  <rect x="192" y="512" width="8" height="8" fill="#ffff00" filter="url(#glow)" />
  <rect x="144" y="536" width="6" height="6" fill="#ff8800" filter="url(#glow)" />
  <rect x="204" y="528" width="6" height="6" fill="#ff8800" filter="url(#glow)" />

  
  <rect x="1180" y="360" width="280" height="380" fill="#fffef0" rx="4" />
  <rect x="1180" y="360" width="280" height="20" fill="#e8e0a0" />
  
  <rect x="1200" y="400" width="200" height="8" fill="#333333" />
  <rect x="1200" y="420" width="240" height="8" fill="#333333" />
  <rect x="1200" y="440" width="220" height="8" fill="#333333" />
  <rect x="1200" y="460" width="240" height="8" fill="#333333" />
  <rect x="1200" y="480" width="180" height="8" fill="#333333" />
  <rect x="1200" y="510" width="240" height="8" fill="#555555" />
  <rect x="1200" y="530" width="200" height="8" fill="#555555" />
  <rect x="1200" y="550" width="240" height="8" fill="#555555" />
  
  <rect x="1190" y="600" width="260" height="80" fill="none" stroke="#cc0000" stroke-width="8" opacity="0.85" />
  <text x="1320" y="655" font-family="monospace" font-size="36" font-weight="900" fill="#cc0000" text-anchor="middle" opacity="0.9" transform="rotate(-15,1320,640)">COMMUTED</text>
  
  <circle cx="1320" cy="500" r="0" fill="none" />
  
  <rect x="1210" y="700" width="180" height="6" fill="#333" />
  
  <rect x="1215" y="688" width="12" height="8" fill="#1a3a8a" />
  <rect x="1227" y="680" width="8" height="8" fill="#1a3a8a" />
  <rect x="1235" y="686" width="8" height="8" fill="#1a3a8a" />
  <rect x="1243" y="678" width="8" height="8" fill="#1a3a8a" />
  <rect x="1251" y="686" width="8" height="8" fill="#1a3a8a" />
  <rect x="1259" y="680" width="8" height="8" fill="#1a3a8a" />
  <rect x="1267" y="688" width="20" height="8" fill="#1a3a8a" />
  <rect x="1290" y="682" width="10" height="8" fill="#1a3a8a" />
  <rect x="1305" y="690" width="8" height="6" fill="#1a3a8a" />

  
  
  <rect x="740" y="680" width="56" height="56" fill="#f5c89a" />
  
  <rect x="752" y="696" width="10" height="10" fill="#222" />
  <rect x="774" y="696" width="10" height="10" fill="#222" />
  
  <rect x="756" y="720" width="24" height="6" fill="#c07050" />
  
  <rect x="724" y="736" width="88" height="84" fill="#2a2a5a" />
  
  <rect x="758" y="740" width="20" height="60" fill="#cc2222" />
  
  <rect x="732" y="820" width="32" height="32" fill="#222244" />
  <rect x="772" y="820" width="32" height="32" fill="#222244" />
  
  <rect x="688" y="736" width="36" height="20" fill="#2a2a5a" />
  <rect x="812" y="736" width="36" height="20" fill="#2a2a5a" />

  
  <rect x="360" y="628" width="380" height="16" fill="#ffcc00" filter="url(#glow)" opacity="0.8" />
  <polygon points="740,608 740,660 780,636" fill="#ffcc00" filter="url(#glow)" opacity="0.8" />

  
  
  <text x="772" y="268" font-family="monospace, 'Courier New', Courier" font-size="64" font-weight="900" fill="#000000" text-anchor="middle" opacity="0.6" letter-spacing="2">SCOOTER LIBBY'S</text>
  <text x="772" y="352" font-family="monospace, 'Courier New', Courier" font-size="64" font-weight="900" fill="#000000" text-anchor="middle" opacity="0.6" letter-spacing="2">SENTENCE COMMUTED</text>
  
  <text x="768" y="264" font-family="monospace, 'Courier New', Courier" font-size="64" font-weight="900" fill="#ffee44" text-anchor="middle" filter="url(#glow)" letter-spacing="2">SCOOTER LIBBY'S</text>
  <text x="768" y="348" font-family="monospace, 'Courier New', Courier" font-size="64" font-weight="900" fill="#ffee44" text-anchor="middle" filter="url(#glow)" letter-spacing="2">SENTENCE COMMUTED</text>

  
  <text x="768" y="920" font-family="monospace, 'Courier New', Courier" font-size="32" font-weight="700" fill="#88ffaa" text-anchor="middle" filter="url(#glow)">PRESIDENT BUSH INTERVENES  ■  JULY 2, 2007</text>

  
  <text x="80" y="356" font-family="monospace" font-size="22" fill="#44ff88" filter="url(#glow)">PRISON</text>
  <text x="1190" y="356" font-family="monospace" font-size="22" fill="#44ff88" filter="url(#glow)">PARDON</text>

  
  <rect x="20" y="20" width="40" height="8" fill="#ff4488" opacity="0.8" />
  <rect x="36" y="4" width="8" height="40" fill="#ff4488" opacity="0.8" />
  <rect x="1476" y="20" width="40" height="8" fill="#ff4488" opacity="0.8" />
  <rect x="1492" y="4" width="8" height="40" fill="#ff4488" opacity="0.8" />
  <rect x="20" y="996" width="40" height="8" fill="#ff4488" opacity="0.8" />
  <rect x="36" y="980" width="8" height="40" fill="#ff4488" opacity="0.8" />
  <rect x="1476" y="996" width="40" height="8" fill="#ff4488" opacity="0.8" />
  <rect x="1492" y="980" width="8" height="40" fill="#ff4488" opacity="0.8" />

  
  <rect width="1536" height="1024" fill="url(#scanlines)" opacity="0.4" />

  
  <radialGradient id="vignette" cx="50%" cy="50%" r="70%">
    <stop offset="60%" stop-color="transparent" />
    <stop offset="100%" stop-color="rgba(0,0,0,0.7)" />
  </radialGradient>
  <rect width="1536" height="1024" fill="url(#vignette)" />
</svg>