<svg xmlns="http://www.w3.org/2000/svg" viewBox="0 0 1536 1024" role="img" width="1536" height="1024">
  <title>Super Bowl XLI - Indianapolis Colts vs Chicago Bears, Retro Pixel Art</title>
  
  
  <rect width="1536" height="1024" fill="#0a0a1a" />
  
  
  <defs>
    <pattern id="scanlines" x="0" y="0" width="4" height="4" patternUnits="userSpaceOnUse">
      <rect x="0" y="0" width="4" height="1" fill="#000000" opacity="0.3" />
    </pattern>
    <radialGradient id="crtGlow" cx="50%" cy="50%" r="60%">
      <stop offset="0%" stop-color="#1a1a4a" stop-opacity="0" />
      <stop offset="100%" stop-color="#000000" stop-opacity="0.5" />
    </radialGradient>
  </defs>

  
  <rect x="0" y="600" width="1536" height="424" fill="#1a5c1a" />
  
  <rect x="0" y="600" width="1536" height="8" fill="#2a7c2a" />
  <rect x="0" y="660" width="1536" height="6" fill="#2a7c2a" />
  <rect x="0" y="720" width="1536" height="6" fill="#2a7c2a" />
  <rect x="0" y="780" width="1536" height="6" fill="#2a7c2a" />
  <rect x="0" y="840" width="1536" height="6" fill="#2a7c2a" />
  <rect x="0" y="900" width="1536" height="6" fill="#2a7c2a" />
  <rect x="0" y="960" width="1536" height="6" fill="#2a7c2a" />

  
  <rect x="80" y="40" width="4" height="4" fill="#ffffff" />
  <rect x="200" y="80" width="4" height="4" fill="#ffffff" />
  <rect x="350" y="30" width="6" height="6" fill="#ffffff" />
  <rect x="500" y="60" width="4" height="4" fill="#ffffff" />
  <rect x="650" y="20" width="4" height="4" fill="#ffffff" />
  <rect x="800" y="50" width="6" height="6" fill="#ffffff" />
  <rect x="950" y="30" width="4" height="4" fill="#ffffff" />
  <rect x="1100" y="70" width="4" height="4" fill="#ffffff" />
  <rect x="1250" y="40" width="4" height="4" fill="#ffffff" />
  <rect x="1400" y="20" width="6" height="6" fill="#ffffff" />
  <rect x="140" y="120" width="4" height="4" fill="#aaaaff" />
  <rect x="420" y="150" width="4" height="4" fill="#aaaaff" />
  <rect x="700" y="100" width="4" height="4" fill="#aaaaff" />
  <rect x="1050" y="130" width="4" height="4" fill="#aaaaff" />
  <rect x="1350" y="110" width="4" height="4" fill="#aaaaff" />

  
  <rect x="568" y="30" width="400" height="180" fill="#111122" rx="0" />
  <rect x="572" y="34" width="392" height="172" fill="#000033" rx="0" />
  
  <rect x="568" y="30" width="400" height="8" fill="#ffcc00" />
  <rect x="568" y="194" width="400" height="8" fill="#ffcc00" />
  <rect x="568" y="30" width="8" height="172" fill="#ffcc00" />
  <rect x="952" y="30" width="8" height="172" fill="#ffcc00" />
  
  
  
  <rect x="590" y="60" width="24" height="8" fill="#003c7e" />
  <rect x="590" y="68" width="8" height="8" fill="#003c7e" />
  <rect x="590" y="76" width="8" height="8" fill="#003c7e" />
  <rect x="590" y="84" width="8" height="8" fill="#003c7e" />
  <rect x="590" y="92" width="24" height="8" fill="#003c7e" />
  
  <rect x="622" y="60" width="24" height="8" fill="#003c7e" />
  <rect x="622" y="68" width="8" height="8" fill="#003c7e" />
  <rect x="638" y="68" width="8" height="8" fill="#003c7e" />
  <rect x="622" y="76" width="8" height="8" fill="#003c7e" />
  <rect x="638" y="76" width="8" height="8" fill="#003c7e" />
  <rect x="622" y="84" width="8" height="8" fill="#003c7e" />
  <rect x="638" y="84" width="8" height="8" fill="#003c7e" />
  <rect x="622" y="92" width="24" height="8" fill="#003c7e" />
  
  <rect x="654" y="60" width="8" height="40" fill="#003c7e" />
  <rect x="654" y="92" width="24" height="8" fill="#003c7e" />
  
  <rect x="686" y="60" width="24" height="8" fill="#003c7e" />
  <rect x="694" y="68" width="8" height="32" fill="#003c7e" />
  
  <rect x="718" y="60" width="24" height="8" fill="#003c7e" />
  <rect x="718" y="68" width="8" height="8" fill="#003c7e" />
  <rect x="718" y="76" width="24" height="8" fill="#003c7e" />
  <rect x="734" y="84" width="8" height="8" fill="#003c7e" />
  <rect x="718" y="92" width="24" height="8" fill="#003c7e" />

  
  
  <rect x="590" y="112" width="24" height="8" fill="#ffffff" />
  <rect x="606" y="120" width="8" height="8" fill="#ffffff" />
  <rect x="590" y="128" width="24" height="8" fill="#ffffff" />
  <rect x="590" y="136" width="8" height="8" fill="#ffffff" />
  <rect x="590" y="144" width="24" height="8" fill="#ffffff" />
  
  <rect x="622" y="112" width="24" height="8" fill="#ffffff" />
  <rect x="622" y="120" width="8" height="8" fill="#ffffff" />
  <rect x="638" y="120" width="8" height="8" fill="#ffffff" />
  <rect x="622" y="128" width="24" height="8" fill="#ffffff" />
  <rect x="638" y="136" width="8" height="8" fill="#ffffff" />
  <rect x="622" y="144" width="24" height="8" fill="#ffffff" />

  
  <rect x="756" y="120" width="24" height="40" fill="#ffcc00" />
  <text x="760" y="148" font-family="monospace" font-size="24" fill="#000000" font-weight="bold">V</text>

  
  
  <rect x="800" y="60" width="8" height="40" fill="#c83803" />
  <rect x="800" y="60" width="20" height="8" fill="#c83803" />
  <rect x="812" y="68" width="8" height="8" fill="#c83803" />
  <rect x="800" y="76" width="20" height="8" fill="#c83803" />
  <rect x="812" y="84" width="8" height="8" fill="#c83803" />
  <rect x="800" y="92" width="20" height="8" fill="#c83803" />
  
  <rect x="830" y="60" width="8" height="40" fill="#c83803" />
  <rect x="830" y="60" width="24" height="8" fill="#c83803" />
  <rect x="830" y="76" width="20" height="8" fill="#c83803" />
  <rect x="830" y="92" width="24" height="8" fill="#c83803" />
  
  <rect x="862" y="60" width="24" height="8" fill="#c83803" />
  <rect x="862" y="68" width="8" height="8" fill="#c83803" />
  <rect x="878" y="68" width="8" height="8" fill="#c83803" />
  <rect x="862" y="76" width="24" height="8" fill="#c83803" />
  <rect x="862" y="84" width="8" height="8" fill="#c83803" />
  <rect x="878" y="84" width="8" height="8" fill="#c83803" />
  <rect x="862" y="92" width="8" height="8" fill="#c83803" />
  <rect x="878" y="92" width="8" height="8" fill="#c83803" />
  
  <rect x="894" y="60" width="8" height="40" fill="#c83803" />
  <rect x="894" y="60" width="20" height="8" fill="#c83803" />
  <rect x="906" y="68" width="8" height="8" fill="#c83803" />
  <rect x="894" y="76" width="20" height="8" fill="#c83803" />
  <rect x="906" y="84" width="8" height="8" fill="#c83803" />
  <rect x="906" y="92" width="8" height="8" fill="#c83803" />
  
  <rect x="922" y="60" width="20" height="8" fill="#c83803" />
  <rect x="922" y="68" width="8" height="8" fill="#c83803" />
  <rect x="922" y="76" width="20" height="8" fill="#c83803" />
  <rect x="934" y="84" width="8" height="8" fill="#c83803" />
  <rect x="922" y="92" width="20" height="8" fill="#c83803" />

  
  
  <rect x="806" y="112" width="8" height="40" fill="#ffffff" />
  
  <rect x="822" y="112" width="24" height="8" fill="#ffffff" />
  <rect x="838" y="120" width="8" height="12" fill="#ffffff" />
  <rect x="830" y="132" width="16" height="8" fill="#ffffff" />
  <rect x="830" y="140" width="8" height="12" fill="#ffffff" />

  
  
  <rect x="280" y="420" width="80" height="16" fill="#003c7e" />
  <rect x="272" y="436" width="96" height="16" fill="#003c7e" />
  <rect x="264" y="452" width="112" height="8" fill="#c0c0c0" />
  
  <rect x="280" y="460" width="80" height="80" fill="#003c7e" />
  
  <rect x="296" y="476" width="8" height="32" fill="#ffffff" />
  <rect x="312" y="476" width="24" height="8" fill="#ffffff" />
  <rect x="328" y="476" width="8" height="16" fill="#ffffff" />
  <rect x="312" y="492" width="24" height="8" fill="#ffffff" />
  <rect x="312" y="500" width="8" height="8" fill="#ffffff" />
  <rect x="312" y="508" width="24" height="8" fill="#ffffff" />
  
  <rect x="200" y="460" width="80" height="24" fill="#003c7e" />
  <rect x="360" y="460" width="80" height="24" fill="#003c7e" />
  
  <rect x="424" y="468" width="40" height="24" fill="#8B4513" />
  <rect x="428" y="472" width="32" height="4" fill="#ffffff" />
  <rect x="428" y="480" width="32" height="4" fill="#ffffff" />
  
  <rect x="280" y="540" width="32" height="60" fill="#ffffff" />
  <rect x="328" y="540" width="32" height="60" fill="#ffffff" />
  
  <rect x="272" y="600" width="40" height="16" fill="#003c7e" />
  <rect x="320" y="600" width="40" height="16" fill="#003c7e" />

  
  
  <rect x="1100" y="440" width="64" height="16" fill="#0b162a" />
  <rect x="1096" y="456" width="72" height="16" fill="#0b162a" />
  <rect x="1088" y="472" width="88" height="8" fill="#c83803" />
  
  <rect x="1096" y="480" width="72" height="80" fill="#c83803" />
  
  <rect x="1108" y="496" width="8" height="8" fill="#ffffff" />
  <rect x="1108" y="504" width="16" height="8" fill="#ffffff" />
  <rect x="1116" y="512" width="8" height="8" fill="#ffffff" />
  <rect x="1108" y="520" width="16" height="8" fill="#ffffff" />
  <rect x="1108" y="528" width="8" height="8" fill="#ffffff" />
  
  <rect x="1040" y="496" width="56" height="24" fill="#c83803" />
  <rect x="1168" y="480" width="56" height="24" fill="#c83803" />
  
  <rect x="1036" y="504" width="40" height="24" fill="#8B4513" />
  <rect x="1040" y="508" width="32" height="4" fill="#ffffff" />
  
  <rect x="1096" y="560" width="28" height="64" fill="#0b162a" />
  <rect x="1136" y="560" width="28" height="64" fill="#0b162a" />
  
  <rect x="1088" y="624" width="36" height="16" fill="#111111" />
  <rect x="1128" y="616" width="36" height="16" fill="#111111" />

  
  <text x="150" y="680" font-family="monospace" font-size="28" fill="#2a7c2a" font-weight="bold">2</text>
  <text x="390" y="680" font-family="monospace" font-size="28" fill="#2a7c2a" font-weight="bold">5</text>
  <text x="730" y="680" font-family="monospace" font-size="28" fill="#2a7c2a" font-weight="bold">50</text>
  <text x="1100" y="680" font-family="monospace" font-size="28" fill="#2a7c2a" font-weight="bold">5</text>
  <text x="1360" y="680" font-family="monospace" font-size="28" fill="#2a7c2a" font-weight="bold">2</text>

  
  
  <rect x="1320" y="80" width="16" height="8" fill="#ffcc00" />
  <rect x="1312" y="88" width="32" height="8" fill="#ffcc00" />
  <rect x="1312" y="96" width="32" height="8" fill="#ffcc00" />
  <rect x="1312" y="104" width="32" height="8" fill="#ffcc00" />
  <rect x="1320" y="112" width="16" height="8" fill="#ffcc00" />
  
  <rect x="1296" y="88" width="16" height="16" fill="#ffcc00" />
  <rect x="1344" y="88" width="16" height="16" fill="#ffcc00" />
  
  <rect x="1324" y="120" width="8" height="24" fill="#ffcc00" />
  
  <rect x="1308" y="144" width="40" height="8" fill="#ffcc00" />
  <rect x="1304" y="152" width="48" height="8" fill="#ffcc00" />

  
  
  <text x="768" y="310" font-family="monospace" font-size="96" fill="#ffcc00" font-weight="bold" text-anchor="middle" letter-spacing="4" style="paint-order:stroke; stroke:#000000; stroke-width:8px;">SUPER BOWL XLI</text>
  
  
  <text x="768" y="390" font-family="monospace" font-size="40" fill="#ffffff" text-anchor="middle" letter-spacing="2" style="paint-order:stroke; stroke:#000000; stroke-width:6px;">COLTS  29  ·  BEARS  17</text>

  
  <text x="768" y="570" font-family="monospace" font-size="28" fill="#aaaaff" text-anchor="middle" letter-spacing="2">FEB 4, 2007  ·  MIAMI, FL</text>

  
  <rect x="60" y="240" width="240" height="40" fill="#ffcc00" />
  <rect x="64" y="244" width="232" height="32" fill="#000033" />
  <text x="180" y="266" font-family="monospace" font-size="20" fill="#ffcc00" text-anchor="middle" letter-spacing="1">MVP: P. MANNING</text>

  
  <text x="768" y="990" font-family="monospace" font-size="22" fill="#ffcc00" text-anchor="middle" letter-spacing="3">★ INSERT COIN TO REPLAY ★</text>

  
  <rect width="1536" height="1024" fill="url(#scanlines)" />
  <rect width="1536" height="1024" fill="url(#crtGlow)" />

  
  <rect x="0" y="0" width="32" height="8" fill="#ffcc00" />
  <rect x="0" y="0" width="8" height="32" fill="#ffcc00" />
  <rect x="1504" y="0" width="32" height="8" fill="#ffcc00" />
  <rect x="1528" y="0" width="8" height="32" fill="#ffcc00" />
  <rect x="0" y="1016" width="32" height="8" fill="#ffcc00" />
  <rect x="0" y="992" width="8" height="32" fill="#ffcc00" />
  <rect x="1504" y="1016" width="32" height="8" fill="#ffcc00" />
  <rect x="1528" y="992" width="8" height="32" fill="#ffcc00" />

</svg>