<svg xmlns="http://www.w3.org/2000/svg" viewBox="0 0 1536 1024" role="img" width="1536" height="1024">
  <title>The Year 2007 — Knowledge Index: Retro Pixel Art Banner</title>
  <defs>
    <radialGradient id="crt" cx="50%" cy="50%" r="70%">
      <stop offset="0%" stop-color="#1a0a2e" />
      <stop offset="100%" stop-color="#0a0510" />
    </radialGradient>
    <radialGradient id="glow" cx="50%" cy="50%" r="50%">
      <stop offset="0%" stop-color="#7c3aed" stop-opacity="0.3" />
      <stop offset="100%" stop-color="#7c3aed" stop-opacity="0" />
    </radialGradient>
    <filter id="scanline">
      <feTurbulence type="fractalNoise" baseFrequency="0 0.5" numOctaves="1" result="noise" />
      <feColorMatrix type="saturate" values="0" in="noise" result="gray" />
      <feBlend in="SourceGraphic" in2="gray" mode="multiply" />
    </filter>
  </defs>

  
  <rect width="1536" height="1024" fill="url(#crt)" />
  
  <rect width="1536" height="1024" fill="url(#glow)" />

  
  <g opacity="0.08">
    <rect y="0" width="1536" height="2" fill="#ffffff" />
    <rect y="4" width="1536" height="2" fill="#ffffff" />
    <rect y="8" width="1536" height="2" fill="#ffffff" />
    <rect y="12" width="1536" height="2" fill="#ffffff" />
    <rect y="16" width="1536" height="2" fill="#ffffff" />
    <rect y="20" width="1536" height="2" fill="#ffffff" />
    <rect y="24" width="1536" height="2" fill="#ffffff" />
    <rect y="28" width="1536" height="2" fill="#ffffff" />
    <rect y="32" width="1536" height="2" fill="#ffffff" />
    <rect y="36" width="1536" height="2" fill="#ffffff" />
    <rect y="40" width="1536" height="2" fill="#ffffff" />
    <rect y="44" width="1536" height="2" fill="#ffffff" />
    <rect y="48" width="1536" height="2" fill="#ffffff" />
    <rect y="52" width="1536" height="2" fill="#ffffff" />
    <rect y="56" width="1536" height="2" fill="#ffffff" />
    <rect y="60" width="1536" height="2" fill="#ffffff" />
    <rect y="64" width="1536" height="2" fill="#ffffff" />
    <rect y="68" width="1536" height="2" fill="#ffffff" />
    <rect y="72" width="1536" height="2" fill="#ffffff" />
    <rect y="76" width="1536" height="2" fill="#ffffff" />
    <rect y="80" width="1536" height="2" fill="#ffffff" />
    <rect y="84" width="1536" height="2" fill="#ffffff" />
    <rect y="88" width="1536" height="2" fill="#ffffff" />
    <rect y="92" width="1536" height="2" fill="#ffffff" />
    <rect y="96" width="1536" height="2" fill="#ffffff" />
    <rect y="100" width="1536" height="2" fill="#ffffff" />
    <rect y="104" width="1536" height="2" fill="#ffffff" />
    <rect y="108" width="1536" height="2" fill="#ffffff" />
    <rect y="112" width="1536" height="2" fill="#ffffff" />
    <rect y="116" width="1536" height="2" fill="#ffffff" />
    <rect y="120" width="1536" height="2" fill="#ffffff" />
    <rect y="124" width="1536" height="2" fill="#ffffff" />
    <rect y="128" width="1536" height="2" fill="#ffffff" />
    <rect y="132" width="1536" height="2" fill="#ffffff" />
    <rect y="136" width="1536" height="2" fill="#ffffff" />
    <rect y="140" width="1536" height="2" fill="#ffffff" />
    <rect y="144" width="1536" height="2" fill="#ffffff" />
    <rect y="148" width="1536" height="2" fill="#ffffff" />
    <rect y="152" width="1536" height="2" fill="#ffffff" />
    <rect y="156" width="1536" height="2" fill="#ffffff" />
    <rect y="160" width="1536" height="2" fill="#ffffff" />
    <rect y="164" width="1536" height="2" fill="#ffffff" />
    <rect y="168" width="1536" height="2" fill="#ffffff" />
    <rect y="172" width="1536" height="2" fill="#ffffff" />
    <rect y="176" width="1536" height="2" fill="#ffffff" />
    <rect y="180" width="1536" height="2" fill="#ffffff" />
    <rect y="184" width="1536" height="2" fill="#ffffff" />
    <rect y="188" width="1536" height="2" fill="#ffffff" />
    <rect y="192" width="1536" height="2" fill="#ffffff" />
    <rect y="196" width="1536" height="2" fill="#ffffff" />
    <rect y="200" width="1536" height="2" fill="#ffffff" />
    <rect y="204" width="1536" height="2" fill="#ffffff" />
    <rect y="208" width="1536" height="2" fill="#ffffff" />
    <rect y="212" width="1536" height="2" fill="#ffffff" />
    <rect y="216" width="1536" height="2" fill="#ffffff" />
    <rect y="220" width="1536" height="2" fill="#ffffff" />
    <rect y="224" width="1536" height="2" fill="#ffffff" />
    <rect y="228" width="1536" height="2" fill="#ffffff" />
    <rect y="232" width="1536" height="2" fill="#ffffff" />
    <rect y="236" width="1536" height="2" fill="#ffffff" />
    <rect y="240" width="1536" height="2" fill="#ffffff" />
    <rect y="244" width="1536" height="2" fill="#ffffff" />
    <rect y="248" width="1536" height="2" fill="#ffffff" />
    <rect y="252" width="1536" height="2" fill="#ffffff" />
    <rect y="256" width="1536" height="2" fill="#ffffff" />
    <rect y="260" width="1536" height="2" fill="#ffffff" />
    <rect y="264" width="1536" height="2" fill="#ffffff" />
    <rect y="268" width="1536" height="2" fill="#ffffff" />
    <rect y="272" width="1536" height="2" fill="#ffffff" />
    <rect y="276" width="1536" height="2" fill="#ffffff" />
    <rect y="280" width="1536" height="2" fill="#ffffff" />
    <rect y="284" width="1536" height="2" fill="#ffffff" />
    <rect y="288" width="1536" height="2" fill="#ffffff" />
    <rect y="292" width="1536" height="2" fill="#ffffff" />
    <rect y="296" width="1536" height="2" fill="#ffffff" />
    <rect y="300" width="1536" height="2" fill="#ffffff" />
    <rect y="304" width="1536" height="2" fill="#ffffff" />
    <rect y="308" width="1536" height="2" fill="#ffffff" />
    <rect y="312" width="1536" height="2" fill="#ffffff" />
    <rect y="316" width="1536" height="2" fill="#ffffff" />
    <rect y="320" width="1536" height="2" fill="#ffffff" />
    <rect y="324" width="1536" height="2" fill="#ffffff" />
    <rect y="328" width="1536" height="2" fill="#ffffff" />
    <rect y="332" width="1536" height="2" fill="#ffffff" />
    <rect y="336" width="1536" height="2" fill="#ffffff" />
    <rect y="340" width="1536" height="2" fill="#ffffff" />
    <rect y="344" width="1536" height="2" fill="#ffffff" />
    <rect y="348" width="1536" height="2" fill="#ffffff" />
    <rect y="352" width="1536" height="2" fill="#ffffff" />
    <rect y="356" width="1536" height="2" fill="#ffffff" />
    <rect y="360" width="1536" height="2" fill="#ffffff" />
    <rect y="364" width="1536" height="2" fill="#ffffff" />
    <rect y="368" width="1536" height="2" fill="#ffffff" />
    <rect y="372" width="1536" height="2" fill="#ffffff" />
    <rect y="376" width="1536" height="2" fill="#ffffff" />
    <rect y="380" width="1536" height="2" fill="#ffffff" />
    <rect y="384" width="1536" height="2" fill="#ffffff" />
    <rect y="388" width="1536" height="2" fill="#ffffff" />
    <rect y="392" width="1536" height="2" fill="#ffffff" />
    <rect y="396" width="1536" height="2" fill="#ffffff" />
    <rect y="400" width="1536" height="2" fill="#ffffff" />
    <rect y="404" width="1536" height="2" fill="#ffffff" />
    <rect y="408" width="1536" height="2" fill="#ffffff" />
    <rect y="412" width="1536" height="2" fill="#ffffff" />
    <rect y="416" width="1536" height="2" fill="#ffffff" />
    <rect y="420" width="1536" height="2" fill="#ffffff" />
    <rect y="424" width="1536" height="2" fill="#ffffff" />
    <rect y="428" width="1536" height="2" fill="#ffffff" />
    <rect y="432" width="1536" height="2" fill="#ffffff" />
    <rect y="436" width="1536" height="2" fill="#ffffff" />
    <rect y="440" width="1536" height="2" fill="#ffffff" />
    <rect y="444" width="1536" height="2" fill="#ffffff" />
    <rect y="448" width="1536" height="2" fill="#ffffff" />
    <rect y="452" width="1536" height="2" fill="#ffffff" />
    <rect y="456" width="1536" height="2" fill="#ffffff" />
    <rect y="460" width="1536" height="2" fill="#ffffff" />
    <rect y="464" width="1536" height="2" fill="#ffffff" />
    <rect y="468" width="1536" height="2" fill="#ffffff" />
    <rect y="472" width="1536" height="2" fill="#ffffff" />
    <rect y="476" width="1536" height="2" fill="#ffffff" />
    <rect y="480" width="1536" height="2" fill="#ffffff" />
    <rect y="484" width="1536" height="2" fill="#ffffff" />
    <rect y="488" width="1536" height="2" fill="#ffffff" />
    <rect y="492" width="1536" height="2" fill="#ffffff" />
    <rect y="496" width="1536" height="2" fill="#ffffff" />
    <rect y="500" width="1536" height="2" fill="#ffffff" />
    <rect y="504" width="1536" height="2" fill="#ffffff" />
    <rect y="508" width="1536" height="2" fill="#ffffff" />
    <rect y="512" width="1536" height="2" fill="#ffffff" />
    <rect y="516" width="1536" height="2" fill="#ffffff" />
    <rect y="520" width="1536" height="2" fill="#ffffff" />
    <rect y="524" width="1536" height="2" fill="#ffffff" />
    <rect y="528" width="1536" height="2" fill="#ffffff" />
    <rect y="532" width="1536" height="2" fill="#ffffff" />
    <rect y="536" width="1536" height="2" fill="#ffffff" />
    <rect y="540" width="1536" height="2" fill="#ffffff" />
    <rect y="544" width="1536" height="2" fill="#ffffff" />
    <rect y="548" width="1536" height="2" fill="#ffffff" />
    <rect y="552" width="1536" height="2" fill="#ffffff" />
    <rect y="556" width="1536" height="2" fill="#ffffff" />
    <rect y="560" width="1536" height="2" fill="#ffffff" />
    <rect y="564" width="1536" height="2" fill="#ffffff" />
    <rect y="568" width="1536" height="2" fill="#ffffff" />
    <rect y="572" width="1536" height="2" fill="#ffffff" />
    <rect y="576" width="1536" height="2" fill="#ffffff" />
    <rect y="580" width="1536" height="2" fill="#ffffff" />
    <rect y="584" width="1536" height="2" fill="#ffffff" />
    <rect y="588" width="1536" height="2" fill="#ffffff" />
    <rect y="592" width="1536" height="2" fill="#ffffff" />
    <rect y="596" width="1536" height="2" fill="#ffffff" />
    <rect y="600" width="1536" height="2" fill="#ffffff" />
    <rect y="604" width="1536" height="2" fill="#ffffff" />
    <rect y="608" width="1536" height="2" fill="#ffffff" />
    <rect y="612" width="1536" height="2" fill="#ffffff" />
    <rect y="616" width="1536" height="2" fill="#ffffff" />
    <rect y="620" width="1536" height="2" fill="#ffffff" />
    <rect y="624" width="1536" height="2" fill="#ffffff" />
    <rect y="628" width="1536" height="2" fill="#ffffff" />
    <rect y="632" width="1536" height="2" fill="#ffffff" />
    <rect y="636" width="1536" height="2" fill="#ffffff" />
    <rect y="640" width="1536" height="2" fill="#ffffff" />
    <rect y="644" width="1536" height="2" fill="#ffffff" />
    <rect y="648" width="1536" height="2" fill="#ffffff" />
    <rect y="652" width="1536" height="2" fill="#ffffff" />
    <rect y="656" width="1536" height="2" fill="#ffffff" />
    <rect y="660" width="1536" height="2" fill="#ffffff" />
    <rect y="664" width="1536" height="2" fill="#ffffff" />
    <rect y="668" width="1536" height="2" fill="#ffffff" />
    <rect y="672" width="1536" height="2" fill="#ffffff" />
    <rect y="676" width="1536" height="2" fill="#ffffff" />
    <rect y="680" width="1536" height="2" fill="#ffffff" />
    <rect y="684" width="1536" height="2" fill="#ffffff" />
    <rect y="688" width="1536" height="2" fill="#ffffff" />
    <rect y="692" width="1536" height="2" fill="#ffffff" />
    <rect y="696" width="1536" height="2" fill="#ffffff" />
    <rect y="700" width="1536" height="2" fill="#ffffff" />
    <rect y="704" width="1536" height="2" fill="#ffffff" />
    <rect y="708" width="1536" height="2" fill="#ffffff" />
    <rect y="712" width="1536" height="2" fill="#ffffff" />
    <rect y="716" width="1536" height="2" fill="#ffffff" />
    <rect y="720" width="1536" height="2" fill="#ffffff" />
    <rect y="724" width="1536" height="2" fill="#ffffff" />
    <rect y="728" width="1536" height="2" fill="#ffffff" />
    <rect y="732" width="1536" height="2" fill="#ffffff" />
    <rect y="736" width="1536" height="2" fill="#ffffff" />
    <rect y="740" width="1536" height="2" fill="#ffffff" />
    <rect y="744" width="1536" height="2" fill="#ffffff" />
    <rect y="748" width="1536" height="2" fill="#ffffff" />
    <rect y="752" width="1536" height="2" fill="#ffffff" />
    <rect y="756" width="1536" height="2" fill="#ffffff" />
    <rect y="760" width="1536" height="2" fill="#ffffff" />
    <rect y="764" width="1536" height="2" fill="#ffffff" />
    <rect y="768" width="1536" height="2" fill="#ffffff" />
    <rect y="772" width="1536" height="2" fill="#ffffff" />
    <rect y="776" width="1536" height="2" fill="#ffffff" />
    <rect y="780" width="1536" height="2" fill="#ffffff" />
    <rect y="784" width="1536" height="2" fill="#ffffff" />
    <rect y="788" width="1536" height="2" fill="#ffffff" />
    <rect y="792" width="1536" height="2" fill="#ffffff" />
    <rect y="796" width="1536" height="2" fill="#ffffff" />
    <rect y="800" width="1536" height="2" fill="#ffffff" />
    <rect y="804" width="1536" height="2" fill="#ffffff" />
    <rect y="808" width="1536" height="2" fill="#ffffff" />
    <rect y="812" width="1536" height="2" fill="#ffffff" />
    <rect y="816" width="1536" height="2" fill="#ffffff" />
    <rect y="820" width="1536" height="2" fill="#ffffff" />
    <rect y="824" width="1536" height="2" fill="#ffffff" />
    <rect y="828" width="1536" height="2" fill="#ffffff" />
    <rect y="832" width="1536" height="2" fill="#ffffff" />
    <rect y="836" width="1536" height="2" fill="#ffffff" />
    <rect y="840" width="1536" height="2" fill="#ffffff" />
    <rect y="844" width="1536" height="2" fill="#ffffff" />
    <rect y="848" width="1536" height="2" fill="#ffffff" />
    <rect y="852" width="1536" height="2" fill="#ffffff" />
    <rect y="856" width="1536" height="2" fill="#ffffff" />
    <rect y="860" width="1536" height="2" fill="#ffffff" />
    <rect y="864" width="1536" height="2" fill="#ffffff" />
    <rect y="868" width="1536" height="2" fill="#ffffff" />
    <rect y="872" width="1536" height="2" fill="#ffffff" />
    <rect y="876" width="1536" height="2" fill="#ffffff" />
    <rect y="880" width="1536" height="2" fill="#ffffff" />
    <rect y="884" width="1536" height="2" fill="#ffffff" />
    <rect y="888" width="1536" height="2" fill="#ffffff" />
    <rect y="892" width="1536" height="2" fill="#ffffff" />
    <rect y="896" width="1536" height="2" fill="#ffffff" />
    <rect y="900" width="1536" height="2" fill="#ffffff" />
    <rect y="904" width="1536" height="2" fill="#ffffff" />
    <rect y="908" width="1536" height="2" fill="#ffffff" />
    <rect y="912" width="1536" height="2" fill="#ffffff" />
    <rect y="916" width="1536" height="2" fill="#ffffff" />
    <rect y="920" width="1536" height="2" fill="#ffffff" />
    <rect y="924" width="1536" height="2" fill="#ffffff" />
    <rect y="928" width="1536" height="2" fill="#ffffff" />
    <rect y="932" width="1536" height="2" fill="#ffffff" />
    <rect y="936" width="1536" height="2" fill="#ffffff" />
    <rect y="940" width="1536" height="2" fill="#ffffff" />
    <rect y="944" width="1536" height="2" fill="#ffffff" />
    <rect y="948" width="1536" height="2" fill="#ffffff" />
    <rect y="952" width="1536" height="2" fill="#ffffff" />
    <rect y="956" width="1536" height="2" fill="#ffffff" />
    <rect y="960" width="1536" height="2" fill="#ffffff" />
    <rect y="964" width="1536" height="2" fill="#ffffff" />
    <rect y="968" width="1536" height="2" fill="#ffffff" />
    <rect y="972" width="1536" height="2" fill="#ffffff" />
    <rect y="976" width="1536" height="2" fill="#ffffff" />
    <rect y="980" width="1536" height="2" fill="#ffffff" />
    <rect y="984" width="1536" height="2" fill="#ffffff" />
    <rect y="988" width="1536" height="2" fill="#ffffff" />
    <rect y="992" width="1536" height="2" fill="#ffffff" />
    <rect y="996" width="1536" height="2" fill="#ffffff" />
    <rect y="1000" width="1536" height="2" fill="#ffffff" />
    <rect y="1004" width="1536" height="2" fill="#ffffff" />
    <rect y="1008" width="1536" height="2" fill="#ffffff" />
    <rect y="1012" width="1536" height="2" fill="#ffffff" />
    <rect y="1016" width="1536" height="2" fill="#ffffff" />
    <rect y="1020" width="1536" height="2" fill="#ffffff" />
  </g>

  
  
  <rect x="60" y="60" width="16" height="16" fill="#7c3aed" opacity="0.6" />
  <rect x="80" y="60" width="16" height="16" fill="#7c3aed" opacity="0.6" />
  <rect x="60" y="80" width="16" height="16" fill="#a855f7" opacity="0.6" />
  <rect x="96" y="76" width="16" height="16" fill="#4f46e5" opacity="0.5" />
  <rect x="40" y="100" width="16" height="16" fill="#06b6d4" opacity="0.4" />
  <rect x="120" y="50" width="8" height="8" fill="#f59e0b" opacity="0.7" />
  <rect x="136" y="50" width="8" height="8" fill="#f59e0b" opacity="0.7" />
  <rect x="120" y="66" width="8" height="8" fill="#ef4444" opacity="0.7" />

  
  <rect x="1420" y="60" width="16" height="16" fill="#7c3aed" opacity="0.6" />
  <rect x="1436" y="60" width="16" height="16" fill="#a855f7" opacity="0.6" />
  <rect x="1460" y="80" width="16" height="16" fill="#4f46e5" opacity="0.5" />
  <rect x="1400" y="50" width="8" height="8" fill="#f59e0b" opacity="0.7" />
  <rect x="1416" y="50" width="8" height="8" fill="#ef4444" opacity="0.7" />

  
  

  
  <rect x="80" y="180" width="340" height="660" fill="#1e1b4b" rx="0" />
  <rect x="84" y="184" width="332" height="652" fill="#312e81" rx="0" />
  
  <rect x="100" y="164" width="300" height="20" fill="#1e1b4b" />
  <rect x="116" y="148" width="268" height="20" fill="#1e1b4b" />
  <rect x="128" y="136" width="244" height="16" fill="#1e1b4b" />
  
  <rect x="104" y="200" width="292" height="240" fill="#0f0a1e" />
  
  <rect x="108" y="204" width="284" height="232" fill="#0d1117" />
  
  <rect x="108" y="204" width="284" height="232" fill="#7c3aed" opacity="0.07" />

  
  
  <g fill="#a855f7">
    
    <rect x="122" y="224" width="56" height="12" />
    
    <rect x="166" y="236" width="12" height="36" />
    
    <rect x="122" y="272" width="56" height="12" />
    
    <rect x="122" y="284" width="12" height="36" />
    
    <rect x="122" y="320" width="56" height="12" />
  </g>
  
  <g fill="#06b6d4">
    <rect x="194" y="224" width="48" height="12" />
    <rect x="194" y="320" width="48" height="12" />
    <rect x="194" y="236" width="12" height="84" />
    <rect x="230" y="236" width="12" height="84" />
  </g>
  
  <g fill="#06b6d4">
    <rect x="258" y="224" width="48" height="12" />
    <rect x="258" y="320" width="48" height="12" />
    <rect x="258" y="236" width="12" height="84" />
    <rect x="294" y="236" width="12" height="84" />
  </g>
  
  <g fill="#f59e0b">
    <rect x="322" y="224" width="48" height="12" />
    <rect x="358" y="236" width="12" height="96" />
  </g>

  
  <rect x="122" y="348" width="8" height="8" fill="#a855f7" opacity="0.9" />

  
  <rect x="130" y="460" width="240" height="60" fill="#1e1b4b" />
  
  <rect x="150" y="468" width="12" height="8" fill="#6b7280" />
  <rect x="154" y="464" width="4" height="12" fill="#9ca3af" />
  
  <rect x="240" y="470" width="20" height="20" fill="#ef4444" />
  <rect x="268" y="470" width="20" height="20" fill="#22c55e" />
  <rect x="296" y="470" width="20" height="20" fill="#3b82f6" />
  <rect x="324" y="470" width="20" height="20" fill="#f59e0b" />

  
  <rect x="100" y="540" width="300" height="80" fill="#0f0a1e" />
  <text x="250" y="575" font-family="monospace" font-size="14" fill="#22c55e" text-anchor="middle" font-weight="bold">INSERT COIN</text>
  <text x="250" y="598" font-family="monospace" font-size="11" fill="#6b7280" text-anchor="middle">© 2007 KNOWLEDGE CO.</text>

  
  <text x="122" y="220" font-family="monospace" font-size="10" fill="#22c55e">SCORE: 2007</text>
  <text x="330" y="220" font-family="monospace" font-size="10" fill="#22c55e" text-anchor="end">HI: 9999</text>

  
  <rect x="130" y="380" width="8" height="8" fill="#f59e0b" />
  <rect x="146" y="380" width="8" height="8" fill="#f59e0b" />
  <rect x="162" y="380" width="8" height="8" fill="#f59e0b" />
  <rect x="178" y="380" width="8" height="8" fill="#6b7280" />

  
  <text x="250" y="388" font-family="monospace" font-size="10" fill="#7c3aed" text-anchor="middle">LEVEL 3</text>

  
  <rect x="80" y="300" width="8" height="60" fill="#4f46e5" />
  <rect x="412" y="300" width="8" height="60" fill="#4f46e5" />
  <rect x="84" y="308" width="4" height="4" fill="#a855f7" />
  <rect x="84" y="320" width="4" height="4" fill="#a855f7" />
  <rect x="84" y="332" width="4" height="4" fill="#a855f7" />
  <rect x="84" y="344" width="4" height="4" fill="#a855f7" />

  
  
  <rect x="560" y="140" width="920" height="740" fill="#0d1117" rx="0" />
  <rect x="564" y="144" width="912" height="732" fill="#0f172a" rx="0" />
  
  <rect x="564" y="144" width="912" height="40" fill="#1e293b" />
  
  <rect x="580" y="158" width="14" height="14" fill="#ef4444" />
  <rect x="600" y="158" width="14" height="14" fill="#f59e0b" />
  <rect x="620" y="158" width="14" height="14" fill="#22c55e" />
  
  <text x="768" y="170" font-family="monospace" font-size="14" fill="#94a3b8" text-anchor="end">KNOWLEDGE_INDEX.DB — 2007</text>

  
  <rect x="564" y="184" width="912" height="36" fill="#1e3a5f" />
  <text x="590" y="208" font-family="monospace" font-size="16" fill="#38bdf8" font-weight="bold">CATEGORY</text>
  <text x="900" y="208" font-family="monospace" font-size="16" fill="#38bdf8" font-weight="bold">STATUS</text>
  <text x="1120" y="208" font-family="monospace" font-size="16" fill="#38bdf8" font-weight="bold">ENTRIES</text>
  
  <rect x="880" y="184" width="2" height="36" fill="#334155" />
  <rect x="1100" y="184" width="2" height="36" fill="#334155" />

  
  
  <rect x="564" y="220" width="912" height="48" fill="#0f172a" />
  <rect x="564" y="220" width="4" height="48" fill="#ef4444" />
  <text x="590" y="251" font-family="monospace" font-size="15" fill="#e2e8f0">History &amp; Politics</text>
  <rect x="900" y="228" width="60" height="28" fill="#166534" />
  <text x="930" y="247" font-family="monospace" font-size="12" fill="#22c55e" text-anchor="middle">DONE</text>
  <text x="1200" y="251" font-family="monospace" font-size="15" fill="#a855f7" text-anchor="middle">████</text>

  
  <rect x="564" y="268" width="912" height="48" fill="#111827" />
  <rect x="564" y="268" width="4" height="48" fill="#3b82f6" />
  <text x="590" y="299" font-family="monospace" font-size="15" fill="#e2e8f0">Science &amp; Technology</text>
  <rect x="900" y="276" width="60" height="28" fill="#166534" />
  <text x="930" y="295" font-family="monospace" font-size="12" fill="#22c55e" text-anchor="middle">DONE</text>
  <text x="1200" y="299" font-family="monospace" font-size="15" fill="#a855f7" text-anchor="middle">████</text>

  
  <rect x="564" y="316" width="912" height="48" fill="#0f172a" />
  <rect x="564" y="316" width="4" height="48" fill="#a855f7" />
  <text x="590" y="347" font-family="monospace" font-size="15" fill="#e2e8f0">Arts &amp; Culture</text>
  <rect x="900" y="324" width="60" height="28" fill="#166534" />
  <text x="930" y="343" font-family="monospace" font-size="12" fill="#22c55e" text-anchor="middle">DONE</text>
  <text x="1200" y="347" font-family="monospace" font-size="15" fill="#a855f7" text-anchor="middle">███░</text>

  
  <rect x="564" y="364" width="912" height="48" fill="#111827" />
  <rect x="564" y="364" width="4" height="48" fill="#f59e0b" />
  <text x="590" y="395" font-family="monospace" font-size="15" fill="#e2e8f0">Society &amp; Economics</text>
  <rect x="900" y="372" width="60" height="28" fill="#166534" />
  <text x="930" y="391" font-family="monospace" font-size="12" fill="#22c55e" text-anchor="middle">DONE</text>
  <text x="1200" y="395" font-family="monospace" font-size="15" fill="#a855f7" text-anchor="middle">████</text>

  
  <rect x="564" y="412" width="912" height="48" fill="#0f172a" />
  <rect x="564" y="412" width="4" height="48" fill="#22c55e" />
  <text x="590" y="443" font-family="monospace" font-size="15" fill="#e2e8f0">People</text>
  <rect x="900" y="420" width="60" height="28" fill="#166534" />
  <text x="930" y="439" font-family="monospace" font-size="12" fill="#22c55e" text-anchor="middle">DONE</text>
  <text x="1200" y="443" font-family="monospace" font-size="15" fill="#a855f7" text-anchor="middle">██░░</text>

  
  <rect x="564" y="460" width="912" height="2" fill="#334155" />

  
  <rect x="564" y="462" width="912" height="36" fill="#1e293b" />
  <text x="590" y="487" font-family="monospace" font-size="14" fill="#f59e0b" font-weight="bold">▶ NOTABLE EVENTS LOG</text>

  
  <rect x="564" y="498" width="912" height="2" fill="#1e3a5f" />
  
  <rect x="580" y="508" width="8" height="8" fill="#ef4444" />
  <text x="600" y="520" font-family="monospace" font-size="13" fill="#94a3b8">JAN 4  » Nancy Pelosi → First female Speaker of the House</text>
  
  <rect x="580" y="532" width="8" height="8" fill="#3b82f6" />
  <text x="600" y="544" font-family="monospace" font-size="13" fill="#94a3b8">JAN 9  » Apple unveils the iPhone</text>
  
  <rect x="580" y="556" width="8" height="8" fill="#22c55e" />
  <text x="600" y="568" font-family="monospace" font-size="13" fill="#94a3b8">JUL 15 » Last Harry Potter book released worldwide</text>
  
  <rect x="580" y="580" width="8" height="8" fill="#f59e0b" />
  <text x="600" y="592" font-family="monospace" font-size="13" fill="#94a3b8">NOV    » Writers Guild of America strike begins</text>

  
  <rect x="564" y="606" width="912" height="2" fill="#1e3a5f" />

  
  <rect x="564" y="840" width="912" height="36" fill="#0d1117" />
  <rect x="564" y="840" width="912" height="2" fill="#1e3a5f" />
  <text x="580" y="863" font-family="monospace" font-size="12" fill="#22c55e">● MATURE</text>
  <text x="700" y="863" font-family="monospace" font-size="12" fill="#6b7280">TICKS: 3/3</text>
  <text x="840" y="863" font-family="monospace" font-size="12" fill="#6b7280">ARCHIVED: READ-ONLY</text>
  <text x="1100" y="863" font-family="monospace" font-size="12" fill="#4f46e5">NEXT → 2008 ▶</text>

  
  
  <g transform="translate(640, 630)">
    
    <rect x="28" y="100" width="8" height="36" fill="#92400e" />
    <rect x="24" y="108" width="4" height="8" fill="#92400e" />
    <rect x="36" y="116" width="4" height="8" fill="#92400e" />
    
    <rect x="16" y="72" width="36" height="12" fill="#166534" />
    <rect x="8" y="84" width="52" height="12" fill="#15803d" />
    <rect x="4" y="60" width="28" height="12" fill="#166534" />
    <rect x="32" y="56" width="28" height="16" fill="#15803d" />
    <rect x="12" y="48" width="40" height="16" fill="#16a34a" />
    <rect x="20" y="36" width="24" height="16" fill="#22c55e" />
    <rect x="24" y="24" width="16" height="16" fill="#4ade80" />
    <rect x="28" y="16" width="8" height="12" fill="#86efac" />
    
    <rect x="16" y="64" width="4" height="4" fill="#f59e0b" opacity="0.9" />
    <rect x="36" y="52" width="4" height="4" fill="#f59e0b" opacity="0.9" />
    <rect x="28" y="84" width="4" height="4" fill="#f59e0b" opacity="0.9" />
    <rect x="48" y="76" width="4" height="4" fill="#f59e0b" opacity="0.9" />
  </g>

  
  <g transform="translate(760, 620)">
    <rect x="0" y="0" width="32" height="56" fill="#1e293b" rx="0" />
    <rect x="2" y="2" width="28" height="52" fill="#374151" />
    <rect x="4" y="6" width="24" height="36" fill="#0ea5e9" />
    
    <rect x="12" y="46" width="8" height="6" fill="#6b7280" />
    
    <rect x="8" y="10" width="4" height="4" fill="#f59e0b" />
    <rect x="14" y="10" width="4" height="4" fill="#ef4444" />
    <rect x="20" y="10" width="4" height="4" fill="#22c55e" />
    <rect x="8" y="18" width="16" height="2" fill="#94a3b8" />
    <rect x="8" y="22" width="12" height="2" fill="#64748b" />
    <rect x="8" y="26" width="16" height="2" fill="#64748b" />
    <rect x="8" y="30" width="10" height="2" fill="#64748b" />
  </g>

  
  <g transform="translate(860, 626)">
    <rect x="0" y="0" width="36" height="44" fill="#7c2d12" />
    <rect x="4" y="2" width="28" height="40" fill="#9a3412" />
    <rect x="0" y="0" width="4" height="44" fill="#431407" />
    <rect x="6" y="8" width="20" height="2" fill="#fbbf24" opacity="0.8" />
    <rect x="6" y="14" width="16" height="2" fill="#fbbf24" opacity="0.8" />
    <rect x="6" y="20" width="20" height="2" fill="#fbbf24" opacity="0.8" />
    <rect x="6" y="26" width="12" height="2" fill="#fbbf24" opacity="0.8" />
    
    <rect x="14" y="32" width="8" height="4" fill="#f59e0b" />
    <rect x="16" y="30" width="4" height="8" fill="#f59e0b" />
  </g>

  
  <g transform="translate(970, 630)">
    
    <rect x="8" y="24" width="32" height="20" fill="#1e3a5f" />
    <rect x="14" y="44" width="20" height="8" fill="#1e3a5f" />
    <rect x="10" y="52" width="28" height="4" fill="#1e3a5f" />
    
    <rect x="22" y="8" width="4" height="16" fill="#94a3b8" />
    <rect x="18" y="4" width="12" height="8" fill="#cbd5e1" />
    
    <rect x="20" y="0" width="8" height="8" fill="#fbbf24" opacity="0.8" />
    
    <rect x="2" y="8" width="2" height="28" fill="#6b7280" />
    <rect x="4" y="8" width="12" height="8" fill="#ef4444" />
    <rect x="4" y="16" width="12" height="8" fill="#ffffff" opacity="0.6" />
  </g>

  
  <g transform="translate(580, 740)">
    <text x="0" y="14" font-family="monospace" font-size="13" fill="#94a3b8">KNOWLEDGE XP</text>
    <rect x="0" y="20" width="860" height="20" fill="#1e293b" />
    <rect x="0" y="20" width="860" height="20" fill="none" stroke="#334155" stroke-width="2" />
    
    <rect x="2" y="22" width="200" height="16" fill="#7c3aed" />
    <rect x="204" y="22" width="200" height="16" fill="#6d28d9" />
    <rect x="406" y="22" width="200" height="16" fill="#5b21b6" />
    <rect x="608" y="22" width="200" height="16" fill="#4c1d95" />
    
    <rect x="216" y="20" width="2" height="20" fill="#0f172a" />
    <rect x="432" y="20" width="2" height="20" fill="#0f172a" />
    <rect x="648" y="20" width="2" height="20" fill="#0f172a" />
    <text x="430" y="35" font-family="monospace" font-size="11" fill="#e9d5ff" text-anchor="middle">LEVEL 3 COMPLETE — 800/1000 XP</text>
    
    <text x="868" y="36" font-family="monospace" font-size="14" fill="#f59e0b">★★★</text>
  </g>

  
  
  <text x="773" y="955" font-family="monospace" font-size="72" fill="#7c3aed" text-anchor="middle" font-weight="bold" opacity="0.4">THE YEAR 2007</text>
  <text x="770" y="952" font-family="monospace" font-size="72" fill="#a855f7" text-anchor="middle" font-weight="bold" opacity="0.6">THE YEAR 2007</text>
  <text x="768" y="950" font-family="monospace" font-size="72" fill="#e2e8f0" text-anchor="middle" font-weight="bold">THE YEAR 2007</text>

  
  <text x="768" y="995" font-family="monospace" font-size="28" fill="#38bdf8" text-anchor="middle" letter-spacing="6">KNOWLEDGE  INDEX</text>

  
  <rect x="368" y="1003" width="800" height="4" fill="#7c3aed" />
  <rect x="368" y="1003" width="4" height="4" fill="#a855f7" />
  <rect x="1164" y="1003" width="4" height="4" fill="#a855f7" />
  <rect x="376" y="1007" width="796" height="2" fill="#4f46e5" opacity="0.5" />

  
  
  <rect x="60" y="950" width="12" height="12" fill="#f59e0b" />
  <rect x="76" y="938" width="12" height="12" fill="#f59e0b" />
  <rect x="92" y="950" width="12" height="12" fill="#f59e0b" />
  <rect x="76" y="962" width="12" height="12" fill="#ef4444" />

  
  <rect x="1464" y="950" width="12" height="12" fill="#f59e0b" />
  <rect x="1448" y="938" width="12" height="12" fill="#f59e0b" />
  <rect x="1432" y="950" width="12" height="12" fill="#f59e0b" />
  <rect x="1448" y="962" width="12" height="12" fill="#ef4444" />

  
  <rect x="0" y="0" width="1536" height="8" fill="#7c3aed" />
  <rect x="0" y="8" width="1536" height="4" fill="#4f46e5" />
  
  <rect x="0" y="1016" width="1536" height="8" fill="#7c3aed" />
  <rect x="0" y="1012" width="1536" height="4" fill="#4f46e5" />
  
  <rect x="0" y="0" width="8" height="1024" fill="#7c3aed" />
  <rect x="8" y="0" width="4" height="1024" fill="#4f46e5" />
  
  <rect x="1528" y="0" width="8" height="1024" fill="#7c3aed" />
  <rect x="1524" y="0" width="4" height="1024" fill="#4f46e5" />

  
  <rect x="0" y="0" width="20" height="20" fill="#a855f7" />
  <rect x="1516" y="0" width="20" height="20" fill="#a855f7" />
  <rect x="0" y="1004" width="20" height="20" fill="#a855f7" />
  <rect x="1516" y="1004" width="20" height="20" fill="#a855f7" />

</svg>