<svg xmlns="http://www.w3.org/2000/svg" viewBox="0 0 1536 1024" role="img" width="1536" height="1024">
  <title>Tour de France 2007 - Retro Pixel Art Banner</title>
  <defs>
    <linearGradient id="sky" x1="0" y1="0" x2="0" y2="1">
      <stop offset="0%" stop-color="#0a0a2e" />
      <stop offset="100%" stop-color="#1a1a5e" />
    </linearGradient>
    <linearGradient id="road" x1="0" y1="0" x2="0" y2="1">
      <stop offset="0%" stop-color="#333344" />
      <stop offset="100%" stop-color="#555566" />
    </linearGradient>
    <filter id="crt">
      <feColorMatrix type="saturate" values="1.3" />
    </filter>
  </defs>

  
  <rect width="1536" height="1024" fill="url(#sky)" filter="url(#crt)" />

  
  <rect width="1536" height="1024" fill="none" stroke="#00002a" stroke-width="2" opacity="0.3" />
  
  <rect y="0" width="1536" height="2" fill="#000" opacity="0.15" />
  <rect y="4" width="1536" height="2" fill="#000" opacity="0.15" />
  <rect y="8" width="1536" height="2" fill="#000" opacity="0.15" />
  <rect y="12" width="1536" height="2" fill="#000" opacity="0.15" />
  <rect y="16" width="1536" height="2" fill="#000" opacity="0.15" />
  <rect y="20" width="1536" height="2" fill="#000" opacity="0.15" />
  <rect y="24" width="1536" height="2" fill="#000" opacity="0.15" />
  <rect y="28" width="1536" height="2" fill="#000" opacity="0.15" />
  <rect y="32" width="1536" height="2" fill="#000" opacity="0.15" />
  <rect y="36" width="1536" height="2" fill="#000" opacity="0.15" />
  <rect y="40" width="1536" height="2" fill="#000" opacity="0.15" />
  <rect y="44" width="1536" height="2" fill="#000" opacity="0.15" />
  <rect y="48" width="1536" height="2" fill="#000" opacity="0.15" />
  <rect y="52" width="1536" height="2" fill="#000" opacity="0.15" />
  <rect y="56" width="1536" height="2" fill="#000" opacity="0.15" />
  <rect y="60" width="1536" height="2" fill="#000" opacity="0.15" />
  <rect y="64" width="1536" height="2" fill="#000" opacity="0.15" />
  <rect y="68" width="1536" height="2" fill="#000" opacity="0.15" />
  <rect y="72" width="1536" height="2" fill="#000" opacity="0.15" />
  <rect y="76" width="1536" height="2" fill="#000" opacity="0.15" />
  <rect y="80" width="1536" height="2" fill="#000" opacity="0.15" />
  <rect y="84" width="1536" height="2" fill="#000" opacity="0.15" />
  <rect y="88" width="1536" height="2" fill="#000" opacity="0.15" />
  <rect y="92" width="1536" height="2" fill="#000" opacity="0.15" />
  <rect y="96" width="1536" height="2" fill="#000" opacity="0.15" />
  <rect y="100" width="1536" height="2" fill="#000" opacity="0.15" />
  <rect y="104" width="1536" height="2" fill="#000" opacity="0.15" />
  <rect y="108" width="1536" height="2" fill="#000" opacity="0.15" />
  <rect y="112" width="1536" height="2" fill="#000" opacity="0.15" />
  <rect y="116" width="1536" height="2" fill="#000" opacity="0.15" />
  <rect y="120" width="1536" height="2" fill="#000" opacity="0.15" />
  <rect y="124" width="1536" height="2" fill="#000" opacity="0.15" />
  <rect y="128" width="1536" height="2" fill="#000" opacity="0.15" />
  <rect y="132" width="1536" height="2" fill="#000" opacity="0.15" />
  <rect y="136" width="1536" height="2" fill="#000" opacity="0.15" />
  <rect y="140" width="1536" height="2" fill="#000" opacity="0.15" />
  <rect y="144" width="1536" height="2" fill="#000" opacity="0.15" />
  <rect y="148" width="1536" height="2" fill="#000" opacity="0.15" />
  <rect y="152" width="1536" height="2" fill="#000" opacity="0.15" />
  <rect y="156" width="1536" height="2" fill="#000" opacity="0.15" />
  <rect y="160" width="1536" height="2" fill="#000" opacity="0.15" />
  <rect y="164" width="1536" height="2" fill="#000" opacity="0.15" />
  <rect y="168" width="1536" height="2" fill="#000" opacity="0.15" />
  <rect y="172" width="1536" height="2" fill="#000" opacity="0.15" />
  <rect y="176" width="1536" height="2" fill="#000" opacity="0.15" />
  <rect y="180" width="1536" height="2" fill="#000" opacity="0.15" />
  <rect y="184" width="1536" height="2" fill="#000" opacity="0.15" />
  <rect y="188" width="1536" height="2" fill="#000" opacity="0.15" />
  <rect y="192" width="1536" height="2" fill="#000" opacity="0.15" />
  <rect y="196" width="1536" height="2" fill="#000" opacity="0.15" />
  <rect y="200" width="1536" height="2" fill="#000" opacity="0.15" />
  <rect y="204" width="1536" height="2" fill="#000" opacity="0.15" />
  <rect y="208" width="1536" height="2" fill="#000" opacity="0.15" />
  <rect y="212" width="1536" height="2" fill="#000" opacity="0.15" />
  <rect y="216" width="1536" height="2" fill="#000" opacity="0.15" />
  <rect y="220" width="1536" height="2" fill="#000" opacity="0.15" />
  <rect y="224" width="1536" height="2" fill="#000" opacity="0.15" />
  <rect y="228" width="1536" height="2" fill="#000" opacity="0.15" />
  <rect y="232" width="1536" height="2" fill="#000" opacity="0.15" />
  <rect y="236" width="1536" height="2" fill="#000" opacity="0.15" />
  <rect y="240" width="1536" height="2" fill="#000" opacity="0.15" />
  <rect y="244" width="1536" height="2" fill="#000" opacity="0.15" />
  <rect y="248" width="1536" height="2" fill="#000" opacity="0.15" />
  <rect y="252" width="1536" height="2" fill="#000" opacity="0.15" />
  <rect y="256" width="1536" height="2" fill="#000" opacity="0.15" />
  <rect y="260" width="1536" height="2" fill="#000" opacity="0.15" />
  <rect y="264" width="1536" height="2" fill="#000" opacity="0.15" />
  <rect y="268" width="1536" height="2" fill="#000" opacity="0.15" />
  <rect y="272" width="1536" height="2" fill="#000" opacity="0.15" />
  <rect y="276" width="1536" height="2" fill="#000" opacity="0.15" />
  <rect y="280" width="1536" height="2" fill="#000" opacity="0.15" />
  <rect y="284" width="1536" height="2" fill="#000" opacity="0.15" />
  <rect y="288" width="1536" height="2" fill="#000" opacity="0.15" />
  <rect y="292" width="1536" height="2" fill="#000" opacity="0.15" />
  <rect y="296" width="1536" height="2" fill="#000" opacity="0.15" />
  <rect y="300" width="1536" height="2" fill="#000" opacity="0.15" />
  <rect y="304" width="1536" height="2" fill="#000" opacity="0.15" />
  <rect y="308" width="1536" height="2" fill="#000" opacity="0.15" />
  <rect y="312" width="1536" height="2" fill="#000" opacity="0.15" />
  <rect y="316" width="1536" height="2" fill="#000" opacity="0.15" />
  <rect y="320" width="1536" height="2" fill="#000" opacity="0.15" />
  <rect y="324" width="1536" height="2" fill="#000" opacity="0.15" />
  <rect y="328" width="1536" height="2" fill="#000" opacity="0.15" />
  <rect y="332" width="1536" height="2" fill="#000" opacity="0.15" />
  <rect y="336" width="1536" height="2" fill="#000" opacity="0.15" />
  <rect y="340" width="1536" height="2" fill="#000" opacity="0.15" />
  <rect y="344" width="1536" height="2" fill="#000" opacity="0.15" />
  <rect y="348" width="1536" height="2" fill="#000" opacity="0.15" />
  <rect y="352" width="1536" height="2" fill="#000" opacity="0.15" />
  <rect y="356" width="1536" height="2" fill="#000" opacity="0.15" />
  <rect y="360" width="1536" height="2" fill="#000" opacity="0.15" />
  <rect y="364" width="1536" height="2" fill="#000" opacity="0.15" />
  <rect y="368" width="1536" height="2" fill="#000" opacity="0.15" />
  <rect y="372" width="1536" height="2" fill="#000" opacity="0.15" />
  <rect y="376" width="1536" height="2" fill="#000" opacity="0.15" />
  <rect y="380" width="1536" height="2" fill="#000" opacity="0.15" />
  <rect y="384" width="1536" height="2" fill="#000" opacity="0.15" />
  <rect y="388" width="1536" height="2" fill="#000" opacity="0.15" />
  <rect y="392" width="1536" height="2" fill="#000" opacity="0.15" />
  <rect y="396" width="1536" height="2" fill="#000" opacity="0.15" />
  <rect y="400" width="1536" height="2" fill="#000" opacity="0.15" />
  <rect y="404" width="1536" height="2" fill="#000" opacity="0.15" />
  <rect y="408" width="1536" height="2" fill="#000" opacity="0.15" />
  <rect y="412" width="1536" height="2" fill="#000" opacity="0.15" />
  <rect y="416" width="1536" height="2" fill="#000" opacity="0.15" />
  <rect y="420" width="1536" height="2" fill="#000" opacity="0.15" />
  <rect y="424" width="1536" height="2" fill="#000" opacity="0.15" />
  <rect y="428" width="1536" height="2" fill="#000" opacity="0.15" />
  <rect y="432" width="1536" height="2" fill="#000" opacity="0.15" />
  <rect y="436" width="1536" height="2" fill="#000" opacity="0.15" />
  <rect y="440" width="1536" height="2" fill="#000" opacity="0.15" />
  <rect y="444" width="1536" height="2" fill="#000" opacity="0.15" />
  <rect y="448" width="1536" height="2" fill="#000" opacity="0.15" />
  <rect y="452" width="1536" height="2" fill="#000" opacity="0.15" />
  <rect y="456" width="1536" height="2" fill="#000" opacity="0.15" />
  <rect y="460" width="1536" height="2" fill="#000" opacity="0.15" />
  <rect y="464" width="1536" height="2" fill="#000" opacity="0.15" />
  <rect y="468" width="1536" height="2" fill="#000" opacity="0.15" />
  <rect y="472" width="1536" height="2" fill="#000" opacity="0.15" />
  <rect y="476" width="1536" height="2" fill="#000" opacity="0.15" />
  <rect y="480" width="1536" height="2" fill="#000" opacity="0.15" />
  <rect y="484" width="1536" height="2" fill="#000" opacity="0.15" />
  <rect y="488" width="1536" height="2" fill="#000" opacity="0.15" />
  <rect y="492" width="1536" height="2" fill="#000" opacity="0.15" />
  <rect y="496" width="1536" height="2" fill="#000" opacity="0.15" />
  <rect y="500" width="1536" height="2" fill="#000" opacity="0.15" />
  <rect y="504" width="1536" height="2" fill="#000" opacity="0.15" />
  <rect y="508" width="1536" height="2" fill="#000" opacity="0.15" />
  <rect y="512" width="1536" height="2" fill="#000" opacity="0.15" />
  <rect y="516" width="1536" height="2" fill="#000" opacity="0.15" />
  <rect y="520" width="1536" height="2" fill="#000" opacity="0.15" />
  <rect y="524" width="1536" height="2" fill="#000" opacity="0.15" />
  <rect y="528" width="1536" height="2" fill="#000" opacity="0.15" />
  <rect y="532" width="1536" height="2" fill="#000" opacity="0.15" />
  <rect y="536" width="1536" height="2" fill="#000" opacity="0.15" />
  <rect y="540" width="1536" height="2" fill="#000" opacity="0.15" />
  <rect y="544" width="1536" height="2" fill="#000" opacity="0.15" />
  <rect y="548" width="1536" height="2" fill="#000" opacity="0.15" />
  <rect y="552" width="1536" height="2" fill="#000" opacity="0.15" />
  <rect y="556" width="1536" height="2" fill="#000" opacity="0.15" />
  <rect y="560" width="1536" height="2" fill="#000" opacity="0.15" />
  <rect y="564" width="1536" height="2" fill="#000" opacity="0.15" />
  <rect y="568" width="1536" height="2" fill="#000" opacity="0.15" />
  <rect y="572" width="1536" height="2" fill="#000" opacity="0.15" />
  <rect y="576" width="1536" height="2" fill="#000" opacity="0.15" />
  <rect y="580" width="1536" height="2" fill="#000" opacity="0.15" />
  <rect y="584" width="1536" height="2" fill="#000" opacity="0.15" />
  <rect y="588" width="1536" height="2" fill="#000" opacity="0.15" />
  <rect y="592" width="1536" height="2" fill="#000" opacity="0.15" />
  <rect y="596" width="1536" height="2" fill="#000" opacity="0.15" />
  <rect y="600" width="1536" height="2" fill="#000" opacity="0.15" />
  <rect y="604" width="1536" height="2" fill="#000" opacity="0.15" />
  <rect y="608" width="1536" height="2" fill="#000" opacity="0.15" />
  <rect y="612" width="1536" height="2" fill="#000" opacity="0.15" />
  <rect y="616" width="1536" height="2" fill="#000" opacity="0.15" />
  <rect y="620" width="1536" height="2" fill="#000" opacity="0.15" />
  <rect y="624" width="1536" height="2" fill="#000" opacity="0.15" />
  <rect y="628" width="1536" height="2" fill="#000" opacity="0.15" />
  <rect y="632" width="1536" height="2" fill="#000" opacity="0.15" />
  <rect y="636" width="1536" height="2" fill="#000" opacity="0.15" />
  <rect y="640" width="1536" height="2" fill="#000" opacity="0.15" />
  <rect y="644" width="1536" height="2" fill="#000" opacity="0.15" />
  <rect y="648" width="1536" height="2" fill="#000" opacity="0.15" />
  <rect y="652" width="1536" height="2" fill="#000" opacity="0.15" />
  <rect y="656" width="1536" height="2" fill="#000" opacity="0.15" />
  <rect y="660" width="1536" height="2" fill="#000" opacity="0.15" />
  <rect y="664" width="1536" height="2" fill="#000" opacity="0.15" />
  <rect y="668" width="1536" height="2" fill="#000" opacity="0.15" />
  <rect y="672" width="1536" height="2" fill="#000" opacity="0.15" />
  <rect y="676" width="1536" height="2" fill="#000" opacity="0.15" />
  <rect y="680" width="1536" height="2" fill="#000" opacity="0.15" />
  <rect y="684" width="1536" height="2" fill="#000" opacity="0.15" />
  <rect y="688" width="1536" height="2" fill="#000" opacity="0.15" />
  <rect y="692" width="1536" height="2" fill="#000" opacity="0.15" />
  <rect y="696" width="1536" height="2" fill="#000" opacity="0.15" />
  <rect y="700" width="1536" height="2" fill="#000" opacity="0.15" />
  <rect y="704" width="1536" height="2" fill="#000" opacity="0.15" />
  <rect y="708" width="1536" height="2" fill="#000" opacity="0.15" />
  <rect y="712" width="1536" height="2" fill="#000" opacity="0.15" />
  <rect y="716" width="1536" height="2" fill="#000" opacity="0.15" />
  <rect y="720" width="1536" height="2" fill="#000" opacity="0.15" />
  <rect y="724" width="1536" height="2" fill="#000" opacity="0.15" />
  <rect y="728" width="1536" height="2" fill="#000" opacity="0.15" />
  <rect y="732" width="1536" height="2" fill="#000" opacity="0.15" />
  <rect y="736" width="1536" height="2" fill="#000" opacity="0.15" />
  <rect y="740" width="1536" height="2" fill="#000" opacity="0.15" />
  <rect y="744" width="1536" height="2" fill="#000" opacity="0.15" />
  <rect y="748" width="1536" height="2" fill="#000" opacity="0.15" />
  <rect y="752" width="1536" height="2" fill="#000" opacity="0.15" />
  <rect y="756" width="1536" height="2" fill="#000" opacity="0.15" />
  <rect y="760" width="1536" height="2" fill="#000" opacity="0.15" />
  <rect y="764" width="1536" height="2" fill="#000" opacity="0.15" />
  <rect y="768" width="1536" height="2" fill="#000" opacity="0.15" />
  <rect y="772" width="1536" height="2" fill="#000" opacity="0.15" />
  <rect y="776" width="1536" height="2" fill="#000" opacity="0.15" />
  <rect y="780" width="1536" height="2" fill="#000" opacity="0.15" />
  <rect y="784" width="1536" height="2" fill="#000" opacity="0.15" />
  <rect y="788" width="1536" height="2" fill="#000" opacity="0.15" />
  <rect y="792" width="1536" height="2" fill="#000" opacity="0.15" />
  <rect y="796" width="1536" height="2" fill="#000" opacity="0.15" />
  <rect y="800" width="1536" height="2" fill="#000" opacity="0.15" />
  <rect y="804" width="1536" height="2" fill="#000" opacity="0.15" />
  <rect y="808" width="1536" height="2" fill="#000" opacity="0.15" />
  <rect y="812" width="1536" height="2" fill="#000" opacity="0.15" />
  <rect y="816" width="1536" height="2" fill="#000" opacity="0.15" />
  <rect y="820" width="1536" height="2" fill="#000" opacity="0.15" />
  <rect y="824" width="1536" height="2" fill="#000" opacity="0.15" />
  <rect y="828" width="1536" height="2" fill="#000" opacity="0.15" />
  <rect y="832" width="1536" height="2" fill="#000" opacity="0.15" />
  <rect y="836" width="1536" height="2" fill="#000" opacity="0.15" />
  <rect y="840" width="1536" height="2" fill="#000" opacity="0.15" />
  <rect y="844" width="1536" height="2" fill="#000" opacity="0.15" />
  <rect y="848" width="1536" height="2" fill="#000" opacity="0.15" />
  <rect y="852" width="1536" height="2" fill="#000" opacity="0.15" />
  <rect y="856" width="1536" height="2" fill="#000" opacity="0.15" />
  <rect y="860" width="1536" height="2" fill="#000" opacity="0.15" />
  <rect y="864" width="1536" height="2" fill="#000" opacity="0.15" />
  <rect y="868" width="1536" height="2" fill="#000" opacity="0.15" />
  <rect y="872" width="1536" height="2" fill="#000" opacity="0.15" />
  <rect y="876" width="1536" height="2" fill="#000" opacity="0.15" />
  <rect y="880" width="1536" height="2" fill="#000" opacity="0.15" />
  <rect y="884" width="1536" height="2" fill="#000" opacity="0.15" />
  <rect y="888" width="1536" height="2" fill="#000" opacity="0.15" />
  <rect y="892" width="1536" height="2" fill="#000" opacity="0.15" />
  <rect y="896" width="1536" height="2" fill="#000" opacity="0.15" />
  <rect y="900" width="1536" height="2" fill="#000" opacity="0.15" />
  <rect y="904" width="1536" height="2" fill="#000" opacity="0.15" />
  <rect y="908" width="1536" height="2" fill="#000" opacity="0.15" />
  <rect y="912" width="1536" height="2" fill="#000" opacity="0.15" />
  <rect y="916" width="1536" height="2" fill="#000" opacity="0.15" />
  <rect y="920" width="1536" height="2" fill="#000" opacity="0.15" />
  <rect y="924" width="1536" height="2" fill="#000" opacity="0.15" />
  <rect y="928" width="1536" height="2" fill="#000" opacity="0.15" />
  <rect y="932" width="1536" height="2" fill="#000" opacity="0.15" />
  <rect y="936" width="1536" height="2" fill="#000" opacity="0.15" />
  <rect y="940" width="1536" height="2" fill="#000" opacity="0.15" />
  <rect y="944" width="1536" height="2" fill="#000" opacity="0.15" />
  <rect y="948" width="1536" height="2" fill="#000" opacity="0.15" />
  <rect y="952" width="1536" height="2" fill="#000" opacity="0.15" />
  <rect y="956" width="1536" height="2" fill="#000" opacity="0.15" />
  <rect y="960" width="1536" height="2" fill="#000" opacity="0.15" />
  <rect y="964" width="1536" height="2" fill="#000" opacity="0.15" />
  <rect y="968" width="1536" height="2" fill="#000" opacity="0.15" />
  <rect y="972" width="1536" height="2" fill="#000" opacity="0.15" />
  <rect y="976" width="1536" height="2" fill="#000" opacity="0.15" />
  <rect y="980" width="1536" height="2" fill="#000" opacity="0.15" />
  <rect y="984" width="1536" height="2" fill="#000" opacity="0.15" />
  <rect y="988" width="1536" height="2" fill="#000" opacity="0.15" />
  <rect y="992" width="1536" height="2" fill="#000" opacity="0.15" />
  <rect y="996" width="1536" height="2" fill="#000" opacity="0.15" />
  <rect y="1000" width="1536" height="2" fill="#000" opacity="0.15" />
  <rect y="1004" width="1536" height="2" fill="#000" opacity="0.15" />
  <rect y="1008" width="1536" height="2" fill="#000" opacity="0.15" />
  <rect y="1012" width="1536" height="2" fill="#000" opacity="0.15" />
  <rect y="1016" width="1536" height="2" fill="#000" opacity="0.15" />
  <rect y="1020" width="1536" height="2" fill="#000" opacity="0.15" />

  
  <rect x="50" y="30" width="6" height="6" fill="#ffffff" opacity="0.9" />
  <rect x="150" y="80" width="4" height="4" fill="#ffff88" opacity="0.8" />
  <rect x="300" y="20" width="6" height="6" fill="#ffffff" opacity="0.7" />
  <rect x="500" y="60" width="4" height="4" fill="#ffffff" opacity="0.9" />
  <rect x="700" y="30" width="6" height="6" fill="#ffff88" opacity="0.8" />
  <rect x="900" y="50" width="4" height="4" fill="#ffffff" opacity="0.7" />
  <rect x="1100" y="20" width="6" height="6" fill="#ffffff" opacity="0.9" />
  <rect x="1300" y="70" width="4" height="4" fill="#ffff88" opacity="0.8" />
  <rect x="1450" y="35" width="6" height="6" fill="#ffffff" opacity="0.7" />
  <rect x="80" y="120" width="4" height="4" fill="#ffffff" opacity="0.6" />
  <rect x="400" y="100" width="4" height="4" fill="#ffffff" opacity="0.6" />
  <rect x="800" y="90" width="6" height="6" fill="#ffff88" opacity="0.7" />
  <rect x="1200" y="110" width="4" height="4" fill="#ffffff" opacity="0.6" />

  
  
  <polygon points="0,700 200,350 400,700" fill="#223366" />
  
  <polygon points="200,700 450,280 700,700" fill="#1a2855" />
  
  <polygon points="500,700 750,300 1000,700" fill="#223366" />
  
  <polygon points="800,700 1100,250 1400,700" fill="#1a2855" />
  
  <polygon points="1200,700 1400,350 1536,700" fill="#223366" />

  
  <polygon points="200,350 175,420 225,420" fill="#eeeeff" />
  <polygon points="450,280 420,370 480,370" fill="#eeeeff" />
  <polygon points="750,300 720,390 780,390" fill="#eeeeff" />
  <polygon points="1100,250 1065,360 1135,360" fill="#eeeeff" />
  <polygon points="1400,350 1375,420 1425,420" fill="#eeeeff" />

  
  <rect x="0" y="820" width="1536" height="204" fill="#2a2a3a" />

  
  
  <rect x="580" y="700" width="376" height="124" fill="#3a3a4a" />
  <rect x="480" y="780" width="576" height="44" fill="#3a3a4a" />
  <rect x="0" y="820" width="1536" height="80" fill="#3a3a4a" />

  
  <rect x="100" y="857" width="80" height="8" fill="#ffff00" />
  <rect x="260" y="857" width="80" height="8" fill="#ffff00" />
  <rect x="420" y="857" width="80" height="8" fill="#ffff00" />
  <rect x="580" y="857" width="80" height="8" fill="#ffff00" />
  <rect x="740" y="857" width="80" height="8" fill="#ffff00" />
  <rect x="900" y="857" width="80" height="8" fill="#ffff00" />
  <rect x="1060" y="857" width="80" height="8" fill="#ffff00" />
  <rect x="1220" y="857" width="80" height="8" fill="#ffff00" />
  <rect x="1380" y="857" width="80" height="8" fill="#ffff00" />

  
  <rect x="0" y="900" width="1536" height="124" fill="#0a3a0a" />

  
  
  
  
  <rect x="700" y="780" width="8" height="8" fill="#cccccc" />
  <rect x="692" y="788" width="24" height="8" fill="#cccccc" />
  <rect x="684" y="796" width="40" height="8" fill="#cccccc" />
  <rect x="692" y="804" width="24" height="8" fill="#cccccc" />
  <rect x="700" y="812" width="8" height="8" fill="#cccccc" />
  
  <rect x="708" y="788" width="8" height="32" fill="#888888" />
  <rect x="692" y="796" width="32" height="8" fill="#888888" />
  
  <rect x="704" y="796" width="8" height="8" fill="#ffcc00" />

  
  <rect x="800" y="780" width="8" height="8" fill="#cccccc" />
  <rect x="792" y="788" width="24" height="8" fill="#cccccc" />
  <rect x="784" y="796" width="40" height="8" fill="#cccccc" />
  <rect x="792" y="804" width="24" height="8" fill="#cccccc" />
  <rect x="800" y="812" width="8" height="8" fill="#cccccc" />
  
  <rect x="808" y="788" width="8" height="32" fill="#888888" />
  <rect x="792" y="796" width="32" height="8" fill="#888888" />
  
  <rect x="804" y="796" width="8" height="8" fill="#ffcc00" />

  
  <rect x="712" y="752" width="80" height="8" fill="#ffcc00" />
  
  <rect x="784" y="752" width="8" height="48" fill="#ffcc00" />
  
  <rect x="712" y="752" width="8" height="48" fill="#ffcc00" />
  
  <rect x="712" y="800" width="96" height="8" fill="#ffcc00" />
  
  <rect x="792" y="760" width="8" height="40" fill="#ffcc00" />

  
  
  <rect x="720" y="704" width="56" height="48" fill="#ffcc00" />
  
  <rect x="760" y="720" width="40" height="16" fill="#ffcc00" />
  
  <rect x="792" y="728" width="16" height="8" fill="#ffcc00" />
  
  <rect x="724" y="680" width="32" height="32" fill="#ffcc00" />
  
  <rect x="724" y="672" width="32" height="16" fill="#cc0000" />
  
  <rect x="732" y="692" width="8" height="8" fill="#ffccaa" />
  <rect x="748" y="692" width="8" height="8" fill="#ffccaa" />
  
  <rect x="720" y="752" width="20" height="48" fill="#ffcc00" />
  <rect x="744" y="752" width="20" height="48" fill="#0000cc" />

  
  <rect x="50" y="860" width="16" height="32" fill="#ff4444" />
  <rect x="66" y="868" width="16" height="24" fill="#4444ff" />
  <rect x="82" y="856" width="16" height="36" fill="#44ff44" />
  <rect x="98" y="864" width="16" height="28" fill="#ff44ff" />
  <rect x="114" y="860" width="16" height="32" fill="#44ffff" />
  <rect x="130" y="868" width="16" height="24" fill="#ffff44" />
  <rect x="146" y="854" width="16" height="38" fill="#ff4444" />
  <rect x="162" y="862" width="16" height="30" fill="#ffffff" />
  <rect x="178" y="858" width="16" height="34" fill="#ff8844" />
  <rect x="194" y="866" width="16" height="26" fill="#4488ff" />
  
  <rect x="54" y="848" width="8" height="8" fill="#ffccaa" />
  <rect x="70" y="856" width="8" height="8" fill="#ffccaa" />
  <rect x="86" y="844" width="8" height="8" fill="#ffccaa" />
  <rect x="102" y="852" width="8" height="8" fill="#ffccaa" />
  <rect x="118" y="848" width="8" height="8" fill="#ffccaa" />
  <rect x="134" y="856" width="8" height="8" fill="#ffccaa" />
  <rect x="150" y="842" width="8" height="8" fill="#ffccaa" />
  <rect x="166" y="850" width="8" height="8" fill="#ffccaa" />
  <rect x="182" y="846" width="8" height="8" fill="#ffccaa" />
  <rect x="198" y="854" width="8" height="8" fill="#ffccaa" />

  
  <rect x="54" y="820" width="8" height="16" fill="#0033aa" />
  <rect x="62" y="820" width="8" height="16" fill="#ffffff" />
  <rect x="70" y="820" width="8" height="16" fill="#cc0000" />
  <rect x="160" y="818" width="8" height="16" fill="#0033aa" />
  <rect x="168" y="818" width="8" height="16" fill="#ffffff" />
  <rect x="176" y="818" width="8" height="16" fill="#cc0000" />

  
  <rect x="1290" y="860" width="16" height="32" fill="#ff4444" />
  <rect x="1306" y="868" width="16" height="24" fill="#4444ff" />
  <rect x="1322" y="856" width="16" height="36" fill="#44ff44" />
  <rect x="1338" y="864" width="16" height="28" fill="#ff44ff" />
  <rect x="1354" y="860" width="16" height="32" fill="#44ffff" />
  <rect x="1370" y="868" width="16" height="24" fill="#ffff44" />
  <rect x="1386" y="854" width="16" height="38" fill="#ff4444" />
  <rect x="1402" y="862" width="16" height="30" fill="#ffffff" />
  <rect x="1418" y="858" width="16" height="34" fill="#ff8844" />
  <rect x="1434" y="866" width="16" height="26" fill="#4488ff" />
  
  <rect x="1294" y="848" width="8" height="8" fill="#ffccaa" />
  <rect x="1310" y="856" width="8" height="8" fill="#ffccaa" />
  <rect x="1326" y="844" width="8" height="8" fill="#ffccaa" />
  <rect x="1342" y="852" width="8" height="8" fill="#ffccaa" />
  <rect x="1358" y="848" width="8" height="8" fill="#ffccaa" />
  <rect x="1374" y="856" width="8" height="8" fill="#ffccaa" />
  <rect x="1390" y="842" width="8" height="8" fill="#ffccaa" />
  <rect x="1406" y="850" width="8" height="8" fill="#ffccaa" />
  <rect x="1422" y="846" width="8" height="8" fill="#ffccaa" />
  <rect x="1438" y="854" width="8" height="8" fill="#ffccaa" />

  
  
  <rect x="1050" y="600" width="16" height="200" fill="#445566" />
  <rect x="1130" y="600" width="16" height="200" fill="#445566" />
  
  <rect x="1060" y="520" width="76" height="16" fill="#445566" />
  <rect x="1068" y="480" width="60" height="40" fill="#334455" />
  
  <rect x="1078" y="400" width="40" height="80" fill="#334455" />
  <rect x="1086" y="360" width="24" height="40" fill="#334455" />
  <rect x="1092" y="320" width="12" height="40" fill="#334455" />
  <rect x="1096" y="290" width="4" height="30" fill="#ffff44" />
  
  <rect x="1050" y="600" width="80" height="8" fill="#445566" />
  <rect x="1060" y="580" width="60" height="8" fill="#445566" />
  <rect x="1068" y="560" width="44" height="8" fill="#445566" />
  
  <rect x="1130" y="600" width="8" height="8" fill="#445566" />

  
  
  <rect x="950" y="700" width="60" height="8" fill="#ffcc00" />
  <rect x="958" y="676" width="44" height="24" fill="#ffcc00" />
  <rect x="950" y="668" width="60" height="16" fill="#ffcc00" />
  <rect x="966" y="660" width="28" height="8" fill="#ffcc00" />
  
  <rect x="942" y="676" width="16" height="8" fill="#ffcc00" />
  <rect x="1002" y="676" width="16" height="8" fill="#ffcc00" />
  
  <rect x="954" y="708" width="52" height="8" fill="#ffcc00" />
  <rect x="966" y="716" width="28" height="8" fill="#ffcc00" />

  
  
  <text x="768" y="198" font-family="monospace" font-size="110" font-weight="bold" text-anchor="middle" fill="#000000" opacity="0.6" letter-spacing="4">TOUR DE FRANCE</text>
  
  <text x="764" y="194" font-family="monospace" font-size="110" font-weight="bold" text-anchor="middle" fill="#ffee00" letter-spacing="4">TOUR DE FRANCE</text>

  
  <text x="768" y="318" font-family="monospace" font-size="90" font-weight="bold" text-anchor="middle" fill="#000000" opacity="0.6">2007</text>
  <text x="764" y="314" font-family="monospace" font-size="90" font-weight="bold" text-anchor="middle" fill="#ffffff">2007</text>

  
  <rect x="200" y="340" width="1136" height="60" fill="#cc0000" opacity="0.85" />
  <rect x="200" y="340" width="1136" height="4" fill="#ff4444" />
  <rect x="200" y="396" width="1136" height="4" fill="#880000" />
  <text x="768" y="383" font-family="monospace" font-size="36" font-weight="bold" text-anchor="middle" fill="#ffffff" letter-spacing="6">94TH EDITION · ALBERTO CONTADOR WINS</text>

  
  <rect x="60" y="440" width="340" height="180" fill="#000033" opacity="0.85" />
  <rect x="60" y="440" width="340" height="8" fill="#ffcc00" />
  <rect x="60" y="612" width="340" height="4" fill="#ffcc00" />
  <rect x="60" y="440" width="4" height="176" fill="#ffcc00" />
  <rect x="396" y="440" width="4" height="176" fill="#ffcc00" />

  <text x="76" y="474" font-family="monospace" font-size="20" font-weight="bold" fill="#ffcc00">STAGE SELECT</text>
  <text x="76" y="504" font-family="monospace" font-size="16" fill="#ffffff">► STAGES: 20</text>
  <text x="76" y="528" font-family="monospace" font-size="16" fill="#ffffff">► DIST: 3,570 KM</text>
  <text x="76" y="552" font-family="monospace" font-size="16" fill="#ffffff">► JULY 7-29, 2007</text>
  <text x="76" y="576" font-family="monospace" font-size="16" fill="#44ff44">► P1 CONTADOR +0</text>
  <text x="76" y="600" font-family="monospace" font-size="16" fill="#aaaaaa">► P2 EVANS  +23s</text>

  
  <rect x="1136" y="440" width="340" height="180" fill="#000033" opacity="0.85" />
  <rect x="1136" y="440" width="340" height="8" fill="#ff4444" />
  <rect x="1136" y="612" width="340" height="4" fill="#ff4444" />
  <rect x="1136" y="440" width="4" height="176" fill="#ff4444" />
  <rect x="1472" y="440" width="4" height="176" fill="#ff4444" />

  <text x="1152" y="474" font-family="monospace" font-size="20" font-weight="bold" fill="#ff4444">GAME OVER</text>
  <text x="1152" y="504" font-family="monospace" font-size="16" fill="#ffffff">VINOKOUROV</text>
  <text x="1152" y="528" font-family="monospace" font-size="16" fill="#ff4444">DISQUALIFIED!</text>
  <text x="1152" y="556" font-family="monospace" font-size="16" fill="#ffffff">RASMUSSEN</text>
  <text x="1152" y="580" font-family="monospace" font-size="16" fill="#ff4444">REMOVED!</text>
  <text x="1152" y="608" font-family="monospace" font-size="14" fill="#ffff44">⚠ DOPING SCANDAL</text>

  
  <radialGradient id="vignette" cx="50%" cy="50%" r="70%">
    <stop offset="0%" stop-color="#000000" stop-opacity="0" />
    <stop offset="100%" stop-color="#000000" stop-opacity="0.5" />
  </radialGradient>
  <rect width="1536" height="1024" fill="url(#vignette)" />

  
  <rect x="0" y="0" width="1536" height="16" fill="#ffcc00" />
  <rect x="0" y="1008" width="1536" height="16" fill="#ffcc00" />
  <rect x="0" y="0" width="16" height="1024" fill="#ffcc00" />
  <rect x="1520" y="0" width="16" height="1024" fill="#ffcc00" />
  
  <rect x="16" y="16" width="1504" height="8" fill="#cc0000" />
  <rect x="16" y="1000" width="1504" height="8" fill="#cc0000" />
  <rect x="16" y="16" width="8" height="992" fill="#cc0000" />
  <rect x="1512" y="16" width="8" height="992" fill="#cc0000" />

</svg>