<svg xmlns="http://www.w3.org/2000/svg" viewBox="0 0 1536 1024" role="img" width="1536" height="1024">
  <title>Treaty of Lisbon signed by EU leaders - Retro Pixel Art Banner</title>
  <defs>
    <radialGradient id="crt" cx="50%" cy="50%" r="70%">
      <stop offset="0%" stop-color="#1a0a4a" />
      <stop offset="100%" stop-color="#050010" />
    </radialGradient>
    <filter id="glow">
      <feGaussianBlur stdDeviation="3" result="blur" />
      <feMerge><feMergeNode in="blur" /><feMergeNode in="SourceGraphic" /></feMerge>
    </filter>
  </defs>

  
  <rect width="1536" height="1024" fill="url(#crt)" />

  
  <rect width="1536" height="1024" fill="none" stroke="#0a0030" stroke-width="2" opacity="0.3" />
  
  <g opacity="0.15">
    <rect x="0" y="0" width="1536" height="2" fill="#000" />
    <rect x="0" y="4" width="1536" height="2" fill="#000" />
    <rect x="0" y="8" width="1536" height="2" fill="#000" />
    <rect x="0" y="12" width="1536" height="2" fill="#000" />
    <rect x="0" y="16" width="1536" height="2" fill="#000" />
    <rect x="0" y="20" width="1536" height="2" fill="#000" />
    <rect x="0" y="24" width="1536" height="2" fill="#000" />
    <rect x="0" y="28" width="1536" height="2" fill="#000" />
    <rect x="0" y="32" width="1536" height="2" fill="#000" />
    <rect x="0" y="36" width="1536" height="2" fill="#000" />
    <rect x="0" y="40" width="1536" height="2" fill="#000" />
    <rect x="0" y="44" width="1536" height="2" fill="#000" />
    <rect x="0" y="48" width="1536" height="2" fill="#000" />
    <rect x="0" y="52" width="1536" height="2" fill="#000" />
    <rect x="0" y="56" width="1536" height="2" fill="#000" />
    <rect x="0" y="60" width="1536" height="2" fill="#000" />
    <rect x="0" y="64" width="1536" height="2" fill="#000" />
    <rect x="0" y="68" width="1536" height="2" fill="#000" />
    <rect x="0" y="72" width="1536" height="2" fill="#000" />
    <rect x="0" y="76" width="1536" height="2" fill="#000" />
    <rect x="0" y="80" width="1536" height="2" fill="#000" />
    <rect x="0" y="84" width="1536" height="2" fill="#000" />
    <rect x="0" y="88" width="1536" height="2" fill="#000" />
    <rect x="0" y="92" width="1536" height="2" fill="#000" />
    <rect x="0" y="96" width="1536" height="2" fill="#000" />
    <rect x="0" y="100" width="1536" height="2" fill="#000" />
    <rect x="0" y="104" width="1536" height="2" fill="#000" />
    <rect x="0" y="108" width="1536" height="2" fill="#000" />
    <rect x="0" y="112" width="1536" height="2" fill="#000" />
    <rect x="0" y="116" width="1536" height="2" fill="#000" />
    <rect x="0" y="120" width="1536" height="2" fill="#000" />
    <rect x="0" y="124" width="1536" height="2" fill="#000" />
    <rect x="0" y="128" width="1536" height="2" fill="#000" />
    <rect x="0" y="132" width="1536" height="2" fill="#000" />
    <rect x="0" y="136" width="1536" height="2" fill="#000" />
    <rect x="0" y="140" width="1536" height="2" fill="#000" />
    <rect x="0" y="144" width="1536" height="2" fill="#000" />
    <rect x="0" y="148" width="1536" height="2" fill="#000" />
    <rect x="0" y="152" width="1536" height="2" fill="#000" />
    <rect x="0" y="156" width="1536" height="2" fill="#000" />
    <rect x="0" y="160" width="1536" height="2" fill="#000" />
    <rect x="0" y="164" width="1536" height="2" fill="#000" />
    <rect x="0" y="168" width="1536" height="2" fill="#000" />
    <rect x="0" y="172" width="1536" height="2" fill="#000" />
    <rect x="0" y="176" width="1536" height="2" fill="#000" />
    <rect x="0" y="180" width="1536" height="2" fill="#000" />
    <rect x="0" y="184" width="1536" height="2" fill="#000" />
    <rect x="0" y="188" width="1536" height="2" fill="#000" />
    <rect x="0" y="192" width="1536" height="2" fill="#000" />
    <rect x="0" y="196" width="1536" height="2" fill="#000" />
    <rect x="0" y="200" width="1536" height="2" fill="#000" />
    <rect x="0" y="204" width="1536" height="2" fill="#000" />
    <rect x="0" y="208" width="1536" height="2" fill="#000" />
    <rect x="0" y="212" width="1536" height="2" fill="#000" />
    <rect x="0" y="216" width="1536" height="2" fill="#000" />
    <rect x="0" y="220" width="1536" height="2" fill="#000" />
    <rect x="0" y="224" width="1536" height="2" fill="#000" />
    <rect x="0" y="228" width="1536" height="2" fill="#000" />
    <rect x="0" y="232" width="1536" height="2" fill="#000" />
    <rect x="0" y="236" width="1536" height="2" fill="#000" />
    <rect x="0" y="240" width="1536" height="2" fill="#000" />
    <rect x="0" y="244" width="1536" height="2" fill="#000" />
    <rect x="0" y="248" width="1536" height="2" fill="#000" />
    <rect x="0" y="252" width="1536" height="2" fill="#000" />
    <rect x="0" y="256" width="1536" height="2" fill="#000" />
    <rect x="0" y="260" width="1536" height="2" fill="#000" />
    <rect x="0" y="264" width="1536" height="2" fill="#000" />
    <rect x="0" y="268" width="1536" height="2" fill="#000" />
    <rect x="0" y="272" width="1536" height="2" fill="#000" />
    <rect x="0" y="276" width="1536" height="2" fill="#000" />
    <rect x="0" y="280" width="1536" height="2" fill="#000" />
    <rect x="0" y="284" width="1536" height="2" fill="#000" />
    <rect x="0" y="288" width="1536" height="2" fill="#000" />
    <rect x="0" y="292" width="1536" height="2" fill="#000" />
    <rect x="0" y="296" width="1536" height="2" fill="#000" />
    <rect x="0" y="300" width="1536" height="2" fill="#000" />
    <rect x="0" y="304" width="1536" height="2" fill="#000" />
    <rect x="0" y="308" width="1536" height="2" fill="#000" />
    <rect x="0" y="312" width="1536" height="2" fill="#000" />
    <rect x="0" y="316" width="1536" height="2" fill="#000" />
    <rect x="0" y="320" width="1536" height="2" fill="#000" />
    <rect x="0" y="324" width="1536" height="2" fill="#000" />
    <rect x="0" y="328" width="1536" height="2" fill="#000" />
    <rect x="0" y="332" width="1536" height="2" fill="#000" />
    <rect x="0" y="336" width="1536" height="2" fill="#000" />
    <rect x="0" y="340" width="1536" height="2" fill="#000" />
    <rect x="0" y="344" width="1536" height="2" fill="#000" />
    <rect x="0" y="348" width="1536" height="2" fill="#000" />
    <rect x="0" y="352" width="1536" height="2" fill="#000" />
    <rect x="0" y="356" width="1536" height="2" fill="#000" />
    <rect x="0" y="360" width="1536" height="2" fill="#000" />
    <rect x="0" y="364" width="1536" height="2" fill="#000" />
    <rect x="0" y="368" width="1536" height="2" fill="#000" />
    <rect x="0" y="372" width="1536" height="2" fill="#000" />
    <rect x="0" y="376" width="1536" height="2" fill="#000" />
    <rect x="0" y="380" width="1536" height="2" fill="#000" />
    <rect x="0" y="384" width="1536" height="2" fill="#000" />
    <rect x="0" y="388" width="1536" height="2" fill="#000" />
    <rect x="0" y="392" width="1536" height="2" fill="#000" />
    <rect x="0" y="396" width="1536" height="2" fill="#000" />
    <rect x="0" y="400" width="1536" height="2" fill="#000" />
    <rect x="0" y="404" width="1536" height="2" fill="#000" />
    <rect x="0" y="408" width="1536" height="2" fill="#000" />
    <rect x="0" y="412" width="1536" height="2" fill="#000" />
    <rect x="0" y="416" width="1536" height="2" fill="#000" />
    <rect x="0" y="420" width="1536" height="2" fill="#000" />
    <rect x="0" y="424" width="1536" height="2" fill="#000" />
    <rect x="0" y="428" width="1536" height="2" fill="#000" />
    <rect x="0" y="432" width="1536" height="2" fill="#000" />
    <rect x="0" y="436" width="1536" height="2" fill="#000" />
    <rect x="0" y="440" width="1536" height="2" fill="#000" />
    <rect x="0" y="444" width="1536" height="2" fill="#000" />
    <rect x="0" y="448" width="1536" height="2" fill="#000" />
    <rect x="0" y="452" width="1536" height="2" fill="#000" />
    <rect x="0" y="456" width="1536" height="2" fill="#000" />
    <rect x="0" y="460" width="1536" height="2" fill="#000" />
    <rect x="0" y="464" width="1536" height="2" fill="#000" />
    <rect x="0" y="468" width="1536" height="2" fill="#000" />
    <rect x="0" y="472" width="1536" height="2" fill="#000" />
    <rect x="0" y="476" width="1536" height="2" fill="#000" />
    <rect x="0" y="480" width="1536" height="2" fill="#000" />
    <rect x="0" y="484" width="1536" height="2" fill="#000" />
    <rect x="0" y="488" width="1536" height="2" fill="#000" />
    <rect x="0" y="492" width="1536" height="2" fill="#000" />
    <rect x="0" y="496" width="1536" height="2" fill="#000" />
    <rect x="0" y="500" width="1536" height="2" fill="#000" />
    <rect x="0" y="504" width="1536" height="2" fill="#000" />
    <rect x="0" y="508" width="1536" height="2" fill="#000" />
    <rect x="0" y="512" width="1536" height="2" fill="#000" />
    <rect x="0" y="516" width="1536" height="2" fill="#000" />
    <rect x="0" y="520" width="1536" height="2" fill="#000" />
    <rect x="0" y="524" width="1536" height="2" fill="#000" />
    <rect x="0" y="528" width="1536" height="2" fill="#000" />
    <rect x="0" y="532" width="1536" height="2" fill="#000" />
    <rect x="0" y="536" width="1536" height="2" fill="#000" />
    <rect x="0" y="540" width="1536" height="2" fill="#000" />
    <rect x="0" y="544" width="1536" height="2" fill="#000" />
    <rect x="0" y="548" width="1536" height="2" fill="#000" />
    <rect x="0" y="552" width="1536" height="2" fill="#000" />
    <rect x="0" y="556" width="1536" height="2" fill="#000" />
    <rect x="0" y="560" width="1536" height="2" fill="#000" />
    <rect x="0" y="564" width="1536" height="2" fill="#000" />
    <rect x="0" y="568" width="1536" height="2" fill="#000" />
    <rect x="0" y="572" width="1536" height="2" fill="#000" />
    <rect x="0" y="576" width="1536" height="2" fill="#000" />
    <rect x="0" y="580" width="1536" height="2" fill="#000" />
    <rect x="0" y="584" width="1536" height="2" fill="#000" />
    <rect x="0" y="588" width="1536" height="2" fill="#000" />
    <rect x="0" y="592" width="1536" height="2" fill="#000" />
    <rect x="0" y="596" width="1536" height="2" fill="#000" />
    <rect x="0" y="600" width="1536" height="2" fill="#000" />
    <rect x="0" y="604" width="1536" height="2" fill="#000" />
    <rect x="0" y="608" width="1536" height="2" fill="#000" />
    <rect x="0" y="612" width="1536" height="2" fill="#000" />
    <rect x="0" y="616" width="1536" height="2" fill="#000" />
    <rect x="0" y="620" width="1536" height="2" fill="#000" />
    <rect x="0" y="624" width="1536" height="2" fill="#000" />
    <rect x="0" y="628" width="1536" height="2" fill="#000" />
    <rect x="0" y="632" width="1536" height="2" fill="#000" />
    <rect x="0" y="636" width="1536" height="2" fill="#000" />
    <rect x="0" y="640" width="1536" height="2" fill="#000" />
    <rect x="0" y="644" width="1536" height="2" fill="#000" />
    <rect x="0" y="648" width="1536" height="2" fill="#000" />
    <rect x="0" y="652" width="1536" height="2" fill="#000" />
    <rect x="0" y="656" width="1536" height="2" fill="#000" />
    <rect x="0" y="660" width="1536" height="2" fill="#000" />
    <rect x="0" y="664" width="1536" height="2" fill="#000" />
    <rect x="0" y="668" width="1536" height="2" fill="#000" />
    <rect x="0" y="672" width="1536" height="2" fill="#000" />
    <rect x="0" y="676" width="1536" height="2" fill="#000" />
    <rect x="0" y="680" width="1536" height="2" fill="#000" />
    <rect x="0" y="684" width="1536" height="2" fill="#000" />
    <rect x="0" y="688" width="1536" height="2" fill="#000" />
    <rect x="0" y="692" width="1536" height="2" fill="#000" />
    <rect x="0" y="696" width="1536" height="2" fill="#000" />
    <rect x="0" y="700" width="1536" height="2" fill="#000" />
    <rect x="0" y="704" width="1536" height="2" fill="#000" />
    <rect x="0" y="708" width="1536" height="2" fill="#000" />
    <rect x="0" y="712" width="1536" height="2" fill="#000" />
    <rect x="0" y="716" width="1536" height="2" fill="#000" />
    <rect x="0" y="720" width="1536" height="2" fill="#000" />
    <rect x="0" y="724" width="1536" height="2" fill="#000" />
    <rect x="0" y="728" width="1536" height="2" fill="#000" />
    <rect x="0" y="732" width="1536" height="2" fill="#000" />
    <rect x="0" y="736" width="1536" height="2" fill="#000" />
    <rect x="0" y="740" width="1536" height="2" fill="#000" />
    <rect x="0" y="744" width="1536" height="2" fill="#000" />
    <rect x="0" y="748" width="1536" height="2" fill="#000" />
    <rect x="0" y="752" width="1536" height="2" fill="#000" />
    <rect x="0" y="756" width="1536" height="2" fill="#000" />
    <rect x="0" y="760" width="1536" height="2" fill="#000" />
    <rect x="0" y="764" width="1536" height="2" fill="#000" />
    <rect x="0" y="768" width="1536" height="2" fill="#000" />
    <rect x="0" y="772" width="1536" height="2" fill="#000" />
    <rect x="0" y="776" width="1536" height="2" fill="#000" />
    <rect x="0" y="780" width="1536" height="2" fill="#000" />
    <rect x="0" y="784" width="1536" height="2" fill="#000" />
    <rect x="0" y="788" width="1536" height="2" fill="#000" />
    <rect x="0" y="792" width="1536" height="2" fill="#000" />
    <rect x="0" y="796" width="1536" height="2" fill="#000" />
    <rect x="0" y="800" width="1536" height="2" fill="#000" />
    <rect x="0" y="804" width="1536" height="2" fill="#000" />
    <rect x="0" y="808" width="1536" height="2" fill="#000" />
    <rect x="0" y="812" width="1536" height="2" fill="#000" />
    <rect x="0" y="816" width="1536" height="2" fill="#000" />
    <rect x="0" y="820" width="1536" height="2" fill="#000" />
    <rect x="0" y="824" width="1536" height="2" fill="#000" />
    <rect x="0" y="828" width="1536" height="2" fill="#000" />
    <rect x="0" y="832" width="1536" height="2" fill="#000" />
    <rect x="0" y="836" width="1536" height="2" fill="#000" />
    <rect x="0" y="840" width="1536" height="2" fill="#000" />
    <rect x="0" y="844" width="1536" height="2" fill="#000" />
    <rect x="0" y="848" width="1536" height="2" fill="#000" />
    <rect x="0" y="852" width="1536" height="2" fill="#000" />
    <rect x="0" y="856" width="1536" height="2" fill="#000" />
    <rect x="0" y="860" width="1536" height="2" fill="#000" />
    <rect x="0" y="864" width="1536" height="2" fill="#000" />
    <rect x="0" y="868" width="1536" height="2" fill="#000" />
    <rect x="0" y="872" width="1536" height="2" fill="#000" />
    <rect x="0" y="876" width="1536" height="2" fill="#000" />
    <rect x="0" y="880" width="1536" height="2" fill="#000" />
    <rect x="0" y="884" width="1536" height="2" fill="#000" />
    <rect x="0" y="888" width="1536" height="2" fill="#000" />
    <rect x="0" y="892" width="1536" height="2" fill="#000" />
    <rect x="0" y="896" width="1536" height="2" fill="#000" />
    <rect x="0" y="900" width="1536" height="2" fill="#000" />
    <rect x="0" y="904" width="1536" height="2" fill="#000" />
    <rect x="0" y="908" width="1536" height="2" fill="#000" />
    <rect x="0" y="912" width="1536" height="2" fill="#000" />
    <rect x="0" y="916" width="1536" height="2" fill="#000" />
    <rect x="0" y="920" width="1536" height="2" fill="#000" />
    <rect x="0" y="924" width="1536" height="2" fill="#000" />
    <rect x="0" y="928" width="1536" height="2" fill="#000" />
    <rect x="0" y="932" width="1536" height="2" fill="#000" />
    <rect x="0" y="936" width="1536" height="2" fill="#000" />
    <rect x="0" y="940" width="1536" height="2" fill="#000" />
    <rect x="0" y="944" width="1536" height="2" fill="#000" />
    <rect x="0" y="948" width="1536" height="2" fill="#000" />
    <rect x="0" y="952" width="1536" height="2" fill="#000" />
    <rect x="0" y="956" width="1536" height="2" fill="#000" />
    <rect x="0" y="960" width="1536" height="2" fill="#000" />
    <rect x="0" y="964" width="1536" height="2" fill="#000" />
    <rect x="0" y="968" width="1536" height="2" fill="#000" />
    <rect x="0" y="972" width="1536" height="2" fill="#000" />
    <rect x="0" y="976" width="1536" height="2" fill="#000" />
    <rect x="0" y="980" width="1536" height="2" fill="#000" />
    <rect x="0" y="984" width="1536" height="2" fill="#000" />
    <rect x="0" y="988" width="1536" height="2" fill="#000" />
    <rect x="0" y="992" width="1536" height="2" fill="#000" />
    <rect x="0" y="996" width="1536" height="2" fill="#000" />
    <rect x="0" y="1000" width="1536" height="2" fill="#000" />
    <rect x="0" y="1004" width="1536" height="2" fill="#000" />
    <rect x="0" y="1008" width="1536" height="2" fill="#000" />
    <rect x="0" y="1012" width="1536" height="2" fill="#000" />
    <rect x="0" y="1016" width="1536" height="2" fill="#000" />
    <rect x="0" y="1020" width="1536" height="2" fill="#000" />
  </g>

  
  
  <rect x="0" y="820" width="1536" height="204" fill="#1a0050" />
  
  <rect x="0" y="816" width="1536" height="8" fill="#2a00a0" />

  
  <rect x="120" y="720" width="900" height="100" fill="#2e1a7a" />
  <rect x="120" y="716" width="900" height="8" fill="#5533cc" />

  
  <rect x="160" y="520" width="820" height="200" fill="#3a22a0" />

  
  <rect x="200" y="560" width="32" height="40" fill="#00c8ff" opacity="0.9" />
  <rect x="264" y="560" width="32" height="40" fill="#00c8ff" opacity="0.9" />
  <rect x="328" y="560" width="32" height="40" fill="#00c8ff" opacity="0.9" />
  <rect x="392" y="560" width="32" height="40" fill="#00c8ff" opacity="0.9" />
  <rect x="456" y="560" width="32" height="40" fill="#00c8ff" opacity="0.9" />
  <rect x="520" y="560" width="32" height="40" fill="#00c8ff" opacity="0.9" />
  <rect x="584" y="560" width="32" height="40" fill="#00c8ff" opacity="0.9" />
  <rect x="648" y="560" width="32" height="40" fill="#00c8ff" opacity="0.9" />
  <rect x="712" y="560" width="32" height="40" fill="#00c8ff" opacity="0.9" />
  <rect x="776" y="560" width="32" height="40" fill="#00c8ff" opacity="0.9" />
  <rect x="840" y="560" width="32" height="40" fill="#00c8ff" opacity="0.9" />
  <rect x="904" y="560" width="32" height="40" fill="#00c8ff" opacity="0.9" />

  
  
  <rect x="160" y="400" width="100" height="120" fill="#442888" />
  <rect x="152" y="392" width="116" height="16" fill="#5533cc" />
  
  <rect x="152" y="368" width="24" height="24" fill="#442888" />
  <rect x="184" y="368" width="24" height="24" fill="#442888" />
  <rect x="216" y="368" width="24" height="24" fill="#442888" />
  <rect x="248" y="368" width="24" height="24" fill="#442888" />
  
  <rect x="192" y="420" width="32" height="48" fill="#ffdd00" opacity="0.8" />

  
  <rect x="880" y="400" width="100" height="120" fill="#442888" />
  <rect x="872" y="392" width="116" height="16" fill="#5533cc" />
  <rect x="872" y="368" width="24" height="24" fill="#442888" />
  <rect x="904" y="368" width="24" height="24" fill="#442888" />
  <rect x="936" y="368" width="24" height="24" fill="#442888" />
  <rect x="968" y="368" width="24" height="24" fill="#442888" />
  <rect x="912" y="420" width="32" height="48" fill="#ffdd00" opacity="0.8" />

  
  <rect x="520" y="340" width="100" height="180" fill="#4a30aa" />
  
  <rect x="536" y="308" width="68" height="32" fill="#5540cc" />
  <rect x="552" y="284" width="36" height="24" fill="#6650cc" />
  <rect x="560" y="268" width="20" height="16" fill="#ffdd00" />
  
  <rect x="568" y="252" width="8" height="16" fill="#ffdd00" />
  <rect x="560" y="260" width="24" height="8" fill="#ffdd00" />
  
  <rect x="548" y="440" width="44" height="60" fill="#00c8ff" opacity="0.85" />

  
  
  <rect x="1260" y="300" width="12" height="520" fill="#888888" />
  
  <rect x="1272" y="300" width="200" height="133" fill="#003399" />
  
  
  <rect x="1363" y="316" width="8" height="8" fill="#ffcc00" />
  <rect x="1387" y="326" width="8" height="8" fill="#ffcc00" />
  <rect x="1397" y="350" width="8" height="8" fill="#ffcc00" />
  <rect x="1387" y="374" width="8" height="8" fill="#ffcc00" />
  <rect x="1363" y="384" width="8" height="8" fill="#ffcc00" />
  <rect x="1339" y="374" width="8" height="8" fill="#ffcc00" />
  <rect x="1329" y="350" width="8" height="8" fill="#ffcc00" />
  <rect x="1339" y="326" width="8" height="8" fill="#ffcc00" />
  
  <rect x="1355" y="332" width="6" height="6" fill="#ffcc00" />
  <rect x="1375" y="332" width="6" height="6" fill="#ffcc00" />
  <rect x="1382" y="360" width="6" height="6" fill="#ffcc00" />
  <rect x="1344" y="360" width="6" height="6" fill="#ffcc00" />

  
  
  <rect x="360" y="640" width="420" height="180" fill="#f5e6b0" />
  <rect x="352" y="632" width="436" height="16" fill="#c8a850" />
  <rect x="352" y="800" width="436" height="16" fill="#c8a850" />
  
  <rect x="344" y="624" width="16" height="200" fill="#e8c860" />
  <rect x="780" y="624" width="16" height="200" fill="#e8c860" />
  
  <rect x="384" y="660" width="200" height="8" fill="#333388" />
  <rect x="384" y="676" width="320" height="8" fill="#333388" />
  <rect x="384" y="692" width="280" height="8" fill="#333388" />
  <rect x="384" y="708" width="300" height="8" fill="#333388" />
  <rect x="384" y="724" width="260" height="8" fill="#333388" />
  <rect x="384" y="740" width="310" height="8" fill="#333388" />
  
  <text x="570" y="790" font-family="monospace" font-size="20" fill="#8b0000" text-anchor="middle" font-weight="bold">TREATY OF LISBON</text>

  
  
  <polygon points="680,760 700,720 716,760" fill="#ffeecc" />
  <rect x="700" y="720" width="8" height="60" fill="#cc8800" />
  
  <polygon points="700,776 704,800 708,776" fill="#222222" />

  
  <g fill="#ffcc00" filter="url(#glow)" opacity="0.85">
    
    <rect x="80" y="100" width="12" height="12" />
    <rect x="140" y="60" width="12" height="12" />
    <rect x="1400" y="80" width="12" height="12" />
    <rect x="1450" y="130" width="12" height="12" />
    <rect x="1350" y="50" width="12" height="12" />
    <rect x="50" y="160" width="12" height="12" />
    <rect x="1480" y="200" width="12" height="12" />
    <rect x="100" y="250" width="8" height="8" />
    <rect x="1420" y="260" width="8" height="8" />
  </g>

  
  <rect x="1180" y="680" width="300" height="100" fill="#003399" />
  <rect x="1180" y="676" width="300" height="8" fill="#ffcc00" />
  <rect x="1180" y="776" width="300" height="8" fill="#ffcc00" />
  <rect x="1176" y="676" width="8" height="108" fill="#ffcc00" />
  <rect x="1476" y="676" width="8" height="108" fill="#ffcc00" />
  <text x="1330" y="725" font-family="monospace" font-size="22" fill="#ffcc00" text-anchor="middle" font-weight="bold">DEC 13</text>
  <text x="1330" y="758" font-family="monospace" font-size="22" fill="#ffffff" text-anchor="middle" font-weight="bold">2007</text>

  
  
  <rect x="400" y="740" width="24" height="8" fill="#ffcc99" />
  <rect x="400" y="748" width="24" height="40" fill="#333399" />
  <rect x="396" y="788" width="12" height="28" fill="#222266" />
  <rect x="412" y="788" width="12" height="28" fill="#222266" />
  
  <rect x="450" y="740" width="24" height="8" fill="#ffcc99" />
  <rect x="450" y="748" width="24" height="40" fill="#993333" />
  <rect x="446" y="788" width="12" height="28" fill="#662222" />
  <rect x="462" y="788" width="12" height="28" fill="#662222" />
  
  <rect x="500" y="740" width="24" height="8" fill="#ffddaa" />
  <rect x="500" y="748" width="24" height="40" fill="#336633" />
  <rect x="496" y="788" width="12" height="28" fill="#224422" />
  <rect x="512" y="788" width="12" height="28" fill="#224422" />

  
  
  <text x="772" y="178" font-family="monospace" font-size="88" fill="#00ffcc" text-anchor="middle" font-weight="bold" filter="url(#glow)" opacity="0.4">TREATY OF LISBON</text>
  
  <text x="768" y="174" font-family="monospace" font-size="88" fill="#00ffcc" text-anchor="middle" font-weight="bold">TREATY OF LISBON</text>
  
  <text x="768" y="278" font-family="monospace" font-size="56" fill="#ffcc00" text-anchor="middle" font-weight="bold" filter="url(#glow)">SIGNED BY EU LEADERS</text>

  
  <rect x="16" y="16" width="1504" height="992" fill="none" stroke="#5533cc" stroke-width="8" />
  <rect x="28" y="28" width="1480" height="968" fill="none" stroke="#3311aa" stroke-width="4" />

  
  <rect x="16" y="16" width="32" height="32" fill="#ffcc00" />
  <rect x="1488" y="16" width="32" height="32" fill="#ffcc00" />
  <rect x="16" y="976" width="32" height="32" fill="#ffcc00" />
  <rect x="1488" y="976" width="32" height="32" fill="#ffcc00" />

  
  <text x="768" y="970" font-family="monospace" font-size="32" fill="#5533cc" text-anchor="middle" font-weight="bold">LISBON · PORTUGAL · 13.12.2007</text>

</svg>