<svg xmlns="http://www.w3.org/2000/svg" viewBox="0 0 1536 1024" role="img" width="1536" height="1024">
  <title>WALL-E: First Revealed to the Public (2007) — Retro Pixel Art Banner</title>
  <defs>
    <radialGradient id="sky" cx="50%" cy="40%" r="60%">
      <stop offset="0%" stop-color="#1a0a2e" />
      <stop offset="100%" stop-color="#0d0d1a" />
    </radialGradient>
    <radialGradient id="glow" cx="50%" cy="50%" r="50%">
      <stop offset="0%" stop-color="#ff9500" stop-opacity="0.3" />
      <stop offset="100%" stop-color="#ff9500" stop-opacity="0" />
    </radialGradient>
    <filter id="crt">
      <feTurbulence type="fractalNoise" baseFrequency="0.9" numOctaves="1" result="noise" />
      <feColorMatrix type="saturate" values="0" in="noise" result="grayNoise" />
      <feBlend in="SourceGraphic" in2="grayNoise" mode="screen" result="blend" />
      <feComponentTransfer in="blend">
        <feFuncA type="linear" slope="0.97" />
      </feComponentTransfer>
    </filter>
  </defs>

  
  <rect width="1536" height="1024" fill="url(#sky)" />

  
  <rect width="1536" height="1024" fill="none" stroke="#00ff88" stroke-opacity="0.02" />
  
  <rect width="1536" height="2" y="0" fill="#000" fill-opacity="0.15" />
  <rect width="1536" height="2" y="4" fill="#000" fill-opacity="0.15" />
  <rect width="1536" height="2" y="8" fill="#000" fill-opacity="0.15" />
  <rect width="1536" height="2" y="12" fill="#000" fill-opacity="0.15" />
  <rect width="1536" height="2" y="16" fill="#000" fill-opacity="0.15" />
  <rect width="1536" height="2" y="20" fill="#000" fill-opacity="0.15" />
  <rect width="1536" height="2" y="24" fill="#000" fill-opacity="0.15" />
  <rect width="1536" height="2" y="28" fill="#000" fill-opacity="0.15" />
  <rect width="1536" height="2" y="32" fill="#000" fill-opacity="0.15" />
  <rect width="1536" height="2" y="36" fill="#000" fill-opacity="0.15" />
  <rect width="1536" height="2" y="40" fill="#000" fill-opacity="0.15" />
  <rect width="1536" height="2" y="44" fill="#000" fill-opacity="0.15" />
  <rect width="1536" height="2" y="48" fill="#000" fill-opacity="0.15" />
  <rect width="1536" height="2" y="52" fill="#000" fill-opacity="0.15" />
  <rect width="1536" height="2" y="56" fill="#000" fill-opacity="0.15" />
  <rect width="1536" height="2" y="60" fill="#000" fill-opacity="0.15" />
  <rect width="1536" height="2" y="64" fill="#000" fill-opacity="0.15" />
  <rect width="1536" height="2" y="68" fill="#000" fill-opacity="0.15" />
  <rect width="1536" height="2" y="72" fill="#000" fill-opacity="0.15" />
  <rect width="1536" height="2" y="76" fill="#000" fill-opacity="0.15" />
  <rect width="1536" height="2" y="80" fill="#000" fill-opacity="0.15" />
  <rect width="1536" height="2" y="84" fill="#000" fill-opacity="0.15" />
  <rect width="1536" height="2" y="88" fill="#000" fill-opacity="0.15" />
  <rect width="1536" height="2" y="92" fill="#000" fill-opacity="0.15" />
  <rect width="1536" height="2" y="96" fill="#000" fill-opacity="0.15" />
  <rect width="1536" height="2" y="100" fill="#000" fill-opacity="0.15" />
  <rect width="1536" height="2" y="104" fill="#000" fill-opacity="0.15" />
  <rect width="1536" height="2" y="108" fill="#000" fill-opacity="0.15" />
  <rect width="1536" height="2" y="112" fill="#000" fill-opacity="0.15" />
  <rect width="1536" height="2" y="116" fill="#000" fill-opacity="0.15" />
  <rect width="1536" height="2" y="120" fill="#000" fill-opacity="0.15" />
  <rect width="1536" height="2" y="124" fill="#000" fill-opacity="0.15" />
  <rect width="1536" height="2" y="128" fill="#000" fill-opacity="0.15" />
  <rect width="1536" height="2" y="132" fill="#000" fill-opacity="0.15" />
  <rect width="1536" height="2" y="136" fill="#000" fill-opacity="0.15" />
  <rect width="1536" height="2" y="140" fill="#000" fill-opacity="0.15" />
  <rect width="1536" height="2" y="144" fill="#000" fill-opacity="0.15" />
  <rect width="1536" height="2" y="148" fill="#000" fill-opacity="0.15" />
  <rect width="1536" height="2" y="152" fill="#000" fill-opacity="0.15" />
  <rect width="1536" height="2" y="156" fill="#000" fill-opacity="0.15" />
  <rect width="1536" height="2" y="160" fill="#000" fill-opacity="0.15" />
  <rect width="1536" height="2" y="164" fill="#000" fill-opacity="0.15" />
  <rect width="1536" height="2" y="168" fill="#000" fill-opacity="0.15" />
  <rect width="1536" height="2" y="172" fill="#000" fill-opacity="0.15" />
  <rect width="1536" height="2" y="176" fill="#000" fill-opacity="0.15" />
  <rect width="1536" height="2" y="180" fill="#000" fill-opacity="0.15" />
  <rect width="1536" height="2" y="184" fill="#000" fill-opacity="0.15" />
  <rect width="1536" height="2" y="188" fill="#000" fill-opacity="0.15" />
  <rect width="1536" height="2" y="192" fill="#000" fill-opacity="0.15" />
  <rect width="1536" height="2" y="196" fill="#000" fill-opacity="0.15" />
  <rect width="1536" height="2" y="200" fill="#000" fill-opacity="0.15" />
  <rect width="1536" height="2" y="204" fill="#000" fill-opacity="0.15" />
  <rect width="1536" height="2" y="208" fill="#000" fill-opacity="0.15" />
  <rect width="1536" height="2" y="212" fill="#000" fill-opacity="0.15" />
  <rect width="1536" height="2" y="216" fill="#000" fill-opacity="0.15" />
  <rect width="1536" height="2" y="220" fill="#000" fill-opacity="0.15" />
  <rect width="1536" height="2" y="224" fill="#000" fill-opacity="0.15" />
  <rect width="1536" height="2" y="228" fill="#000" fill-opacity="0.15" />
  <rect width="1536" height="2" y="232" fill="#000" fill-opacity="0.15" />
  <rect width="1536" height="2" y="236" fill="#000" fill-opacity="0.15" />
  <rect width="1536" height="2" y="240" fill="#000" fill-opacity="0.15" />
  <rect width="1536" height="2" y="244" fill="#000" fill-opacity="0.15" />
  <rect width="1536" height="2" y="248" fill="#000" fill-opacity="0.15" />
  <rect width="1536" height="2" y="252" fill="#000" fill-opacity="0.15" />
  <rect width="1536" height="2" y="256" fill="#000" fill-opacity="0.15" />
  <rect width="1536" height="2" y="260" fill="#000" fill-opacity="0.15" />
  <rect width="1536" height="2" y="264" fill="#000" fill-opacity="0.15" />
  <rect width="1536" height="2" y="268" fill="#000" fill-opacity="0.15" />
  <rect width="1536" height="2" y="272" fill="#000" fill-opacity="0.15" />
  <rect width="1536" height="2" y="276" fill="#000" fill-opacity="0.15" />
  <rect width="1536" height="2" y="280" fill="#000" fill-opacity="0.15" />
  <rect width="1536" height="2" y="284" fill="#000" fill-opacity="0.15" />
  <rect width="1536" height="2" y="288" fill="#000" fill-opacity="0.15" />
  <rect width="1536" height="2" y="292" fill="#000" fill-opacity="0.15" />
  <rect width="1536" height="2" y="296" fill="#000" fill-opacity="0.15" />
  <rect width="1536" height="2" y="300" fill="#000" fill-opacity="0.15" />
  <rect width="1536" height="2" y="304" fill="#000" fill-opacity="0.15" />
  <rect width="1536" height="2" y="308" fill="#000" fill-opacity="0.15" />
  <rect width="1536" height="2" y="312" fill="#000" fill-opacity="0.15" />
  <rect width="1536" height="2" y="316" fill="#000" fill-opacity="0.15" />
  <rect width="1536" height="2" y="320" fill="#000" fill-opacity="0.15" />
  <rect width="1536" height="2" y="324" fill="#000" fill-opacity="0.15" />
  <rect width="1536" height="2" y="328" fill="#000" fill-opacity="0.15" />
  <rect width="1536" height="2" y="332" fill="#000" fill-opacity="0.15" />
  <rect width="1536" height="2" y="336" fill="#000" fill-opacity="0.15" />
  <rect width="1536" height="2" y="340" fill="#000" fill-opacity="0.15" />
  <rect width="1536" height="2" y="344" fill="#000" fill-opacity="0.15" />
  <rect width="1536" height="2" y="348" fill="#000" fill-opacity="0.15" />
  <rect width="1536" height="2" y="352" fill="#000" fill-opacity="0.15" />
  <rect width="1536" height="2" y="356" fill="#000" fill-opacity="0.15" />
  <rect width="1536" height="2" y="360" fill="#000" fill-opacity="0.15" />
  <rect width="1536" height="2" y="364" fill="#000" fill-opacity="0.15" />
  <rect width="1536" height="2" y="368" fill="#000" fill-opacity="0.15" />
  <rect width="1536" height="2" y="372" fill="#000" fill-opacity="0.15" />
  <rect width="1536" height="2" y="376" fill="#000" fill-opacity="0.15" />
  <rect width="1536" height="2" y="380" fill="#000" fill-opacity="0.15" />
  <rect width="1536" height="2" y="384" fill="#000" fill-opacity="0.15" />
  <rect width="1536" height="2" y="388" fill="#000" fill-opacity="0.15" />
  <rect width="1536" height="2" y="392" fill="#000" fill-opacity="0.15" />
  <rect width="1536" height="2" y="396" fill="#000" fill-opacity="0.15" />
  <rect width="1536" height="2" y="400" fill="#000" fill-opacity="0.15" />
  <rect width="1536" height="2" y="404" fill="#000" fill-opacity="0.15" />
  <rect width="1536" height="2" y="408" fill="#000" fill-opacity="0.15" />
  <rect width="1536" height="2" y="412" fill="#000" fill-opacity="0.15" />
  <rect width="1536" height="2" y="416" fill="#000" fill-opacity="0.15" />
  <rect width="1536" height="2" y="420" fill="#000" fill-opacity="0.15" />
  <rect width="1536" height="2" y="424" fill="#000" fill-opacity="0.15" />
  <rect width="1536" height="2" y="428" fill="#000" fill-opacity="0.15" />
  <rect width="1536" height="2" y="432" fill="#000" fill-opacity="0.15" />
  <rect width="1536" height="2" y="436" fill="#000" fill-opacity="0.15" />
  <rect width="1536" height="2" y="440" fill="#000" fill-opacity="0.15" />
  <rect width="1536" height="2" y="444" fill="#000" fill-opacity="0.15" />
  <rect width="1536" height="2" y="448" fill="#000" fill-opacity="0.15" />
  <rect width="1536" height="2" y="452" fill="#000" fill-opacity="0.15" />
  <rect width="1536" height="2" y="456" fill="#000" fill-opacity="0.15" />
  <rect width="1536" height="2" y="460" fill="#000" fill-opacity="0.15" />
  <rect width="1536" height="2" y="464" fill="#000" fill-opacity="0.15" />
  <rect width="1536" height="2" y="468" fill="#000" fill-opacity="0.15" />
  <rect width="1536" height="2" y="472" fill="#000" fill-opacity="0.15" />
  <rect width="1536" height="2" y="476" fill="#000" fill-opacity="0.15" />
  <rect width="1536" height="2" y="480" fill="#000" fill-opacity="0.15" />
  <rect width="1536" height="2" y="484" fill="#000" fill-opacity="0.15" />
  <rect width="1536" height="2" y="488" fill="#000" fill-opacity="0.15" />
  <rect width="1536" height="2" y="492" fill="#000" fill-opacity="0.15" />
  <rect width="1536" height="2" y="496" fill="#000" fill-opacity="0.15" />
  <rect width="1536" height="2" y="500" fill="#000" fill-opacity="0.15" />
  <rect width="1536" height="2" y="504" fill="#000" fill-opacity="0.15" />
  <rect width="1536" height="2" y="508" fill="#000" fill-opacity="0.15" />
  <rect width="1536" height="2" y="512" fill="#000" fill-opacity="0.15" />
  <rect width="1536" height="2" y="516" fill="#000" fill-opacity="0.15" />
  <rect width="1536" height="2" y="520" fill="#000" fill-opacity="0.15" />
  <rect width="1536" height="2" y="524" fill="#000" fill-opacity="0.15" />
  <rect width="1536" height="2" y="528" fill="#000" fill-opacity="0.15" />
  <rect width="1536" height="2" y="532" fill="#000" fill-opacity="0.15" />
  <rect width="1536" height="2" y="536" fill="#000" fill-opacity="0.15" />
  <rect width="1536" height="2" y="540" fill="#000" fill-opacity="0.15" />
  <rect width="1536" height="2" y="544" fill="#000" fill-opacity="0.15" />
  <rect width="1536" height="2" y="548" fill="#000" fill-opacity="0.15" />
  <rect width="1536" height="2" y="552" fill="#000" fill-opacity="0.15" />
  <rect width="1536" height="2" y="556" fill="#000" fill-opacity="0.15" />
  <rect width="1536" height="2" y="560" fill="#000" fill-opacity="0.15" />
  <rect width="1536" height="2" y="564" fill="#000" fill-opacity="0.15" />
  <rect width="1536" height="2" y="568" fill="#000" fill-opacity="0.15" />
  <rect width="1536" height="2" y="572" fill="#000" fill-opacity="0.15" />
  <rect width="1536" height="2" y="576" fill="#000" fill-opacity="0.15" />
  <rect width="1536" height="2" y="580" fill="#000" fill-opacity="0.15" />
  <rect width="1536" height="2" y="584" fill="#000" fill-opacity="0.15" />
  <rect width="1536" height="2" y="588" fill="#000" fill-opacity="0.15" />
  <rect width="1536" height="2" y="592" fill="#000" fill-opacity="0.15" />
  <rect width="1536" height="2" y="596" fill="#000" fill-opacity="0.15" />
  <rect width="1536" height="2" y="600" fill="#000" fill-opacity="0.15" />
  <rect width="1536" height="2" y="604" fill="#000" fill-opacity="0.15" />
  <rect width="1536" height="2" y="608" fill="#000" fill-opacity="0.15" />
  <rect width="1536" height="2" y="612" fill="#000" fill-opacity="0.15" />
  <rect width="1536" height="2" y="616" fill="#000" fill-opacity="0.15" />
  <rect width="1536" height="2" y="620" fill="#000" fill-opacity="0.15" />
  <rect width="1536" height="2" y="624" fill="#000" fill-opacity="0.15" />
  <rect width="1536" height="2" y="628" fill="#000" fill-opacity="0.15" />
  <rect width="1536" height="2" y="632" fill="#000" fill-opacity="0.15" />
  <rect width="1536" height="2" y="636" fill="#000" fill-opacity="0.15" />
  <rect width="1536" height="2" y="640" fill="#000" fill-opacity="0.15" />
  <rect width="1536" height="2" y="644" fill="#000" fill-opacity="0.15" />
  <rect width="1536" height="2" y="648" fill="#000" fill-opacity="0.15" />
  <rect width="1536" height="2" y="652" fill="#000" fill-opacity="0.15" />
  <rect width="1536" height="2" y="656" fill="#000" fill-opacity="0.15" />
  <rect width="1536" height="2" y="660" fill="#000" fill-opacity="0.15" />
  <rect width="1536" height="2" y="664" fill="#000" fill-opacity="0.15" />
  <rect width="1536" height="2" y="668" fill="#000" fill-opacity="0.15" />
  <rect width="1536" height="2" y="672" fill="#000" fill-opacity="0.15" />
  <rect width="1536" height="2" y="676" fill="#000" fill-opacity="0.15" />
  <rect width="1536" height="2" y="680" fill="#000" fill-opacity="0.15" />
  <rect width="1536" height="2" y="684" fill="#000" fill-opacity="0.15" />
  <rect width="1536" height="2" y="688" fill="#000" fill-opacity="0.15" />
  <rect width="1536" height="2" y="692" fill="#000" fill-opacity="0.15" />
  <rect width="1536" height="2" y="696" fill="#000" fill-opacity="0.15" />
  <rect width="1536" height="2" y="700" fill="#000" fill-opacity="0.15" />
  <rect width="1536" height="2" y="704" fill="#000" fill-opacity="0.15" />
  <rect width="1536" height="2" y="708" fill="#000" fill-opacity="0.15" />
  <rect width="1536" height="2" y="712" fill="#000" fill-opacity="0.15" />
  <rect width="1536" height="2" y="716" fill="#000" fill-opacity="0.15" />
  <rect width="1536" height="2" y="720" fill="#000" fill-opacity="0.15" />
  <rect width="1536" height="2" y="724" fill="#000" fill-opacity="0.15" />
  <rect width="1536" height="2" y="728" fill="#000" fill-opacity="0.15" />
  <rect width="1536" height="2" y="732" fill="#000" fill-opacity="0.15" />
  <rect width="1536" height="2" y="736" fill="#000" fill-opacity="0.15" />
  <rect width="1536" height="2" y="740" fill="#000" fill-opacity="0.15" />
  <rect width="1536" height="2" y="744" fill="#000" fill-opacity="0.15" />
  <rect width="1536" height="2" y="748" fill="#000" fill-opacity="0.15" />
  <rect width="1536" height="2" y="752" fill="#000" fill-opacity="0.15" />
  <rect width="1536" height="2" y="756" fill="#000" fill-opacity="0.15" />
  <rect width="1536" height="2" y="760" fill="#000" fill-opacity="0.15" />
  <rect width="1536" height="2" y="764" fill="#000" fill-opacity="0.15" />
  <rect width="1536" height="2" y="768" fill="#000" fill-opacity="0.15" />
  <rect width="1536" height="2" y="772" fill="#000" fill-opacity="0.15" />
  <rect width="1536" height="2" y="776" fill="#000" fill-opacity="0.15" />
  <rect width="1536" height="2" y="780" fill="#000" fill-opacity="0.15" />
  <rect width="1536" height="2" y="784" fill="#000" fill-opacity="0.15" />
  <rect width="1536" height="2" y="788" fill="#000" fill-opacity="0.15" />
  <rect width="1536" height="2" y="792" fill="#000" fill-opacity="0.15" />
  <rect width="1536" height="2" y="796" fill="#000" fill-opacity="0.15" />
  <rect width="1536" height="2" y="800" fill="#000" fill-opacity="0.15" />
  <rect width="1536" height="2" y="804" fill="#000" fill-opacity="0.15" />
  <rect width="1536" height="2" y="808" fill="#000" fill-opacity="0.15" />
  <rect width="1536" height="2" y="812" fill="#000" fill-opacity="0.15" />
  <rect width="1536" height="2" y="816" fill="#000" fill-opacity="0.15" />
  <rect width="1536" height="2" y="820" fill="#000" fill-opacity="0.15" />
  <rect width="1536" height="2" y="824" fill="#000" fill-opacity="0.15" />
  <rect width="1536" height="2" y="828" fill="#000" fill-opacity="0.15" />
  <rect width="1536" height="2" y="832" fill="#000" fill-opacity="0.15" />
  <rect width="1536" height="2" y="836" fill="#000" fill-opacity="0.15" />
  <rect width="1536" height="2" y="840" fill="#000" fill-opacity="0.15" />
  <rect width="1536" height="2" y="844" fill="#000" fill-opacity="0.15" />
  <rect width="1536" height="2" y="848" fill="#000" fill-opacity="0.15" />
  <rect width="1536" height="2" y="852" fill="#000" fill-opacity="0.15" />
  <rect width="1536" height="2" y="856" fill="#000" fill-opacity="0.15" />
  <rect width="1536" height="2" y="860" fill="#000" fill-opacity="0.15" />
  <rect width="1536" height="2" y="864" fill="#000" fill-opacity="0.15" />
  <rect width="1536" height="2" y="868" fill="#000" fill-opacity="0.15" />
  <rect width="1536" height="2" y="872" fill="#000" fill-opacity="0.15" />
  <rect width="1536" height="2" y="876" fill="#000" fill-opacity="0.15" />
  <rect width="1536" height="2" y="880" fill="#000" fill-opacity="0.15" />
  <rect width="1536" height="2" y="884" fill="#000" fill-opacity="0.15" />
  <rect width="1536" height="2" y="888" fill="#000" fill-opacity="0.15" />
  <rect width="1536" height="2" y="892" fill="#000" fill-opacity="0.15" />
  <rect width="1536" height="2" y="896" fill="#000" fill-opacity="0.15" />
  <rect width="1536" height="2" y="900" fill="#000" fill-opacity="0.15" />
  <rect width="1536" height="2" y="904" fill="#000" fill-opacity="0.15" />
  <rect width="1536" height="2" y="908" fill="#000" fill-opacity="0.15" />
  <rect width="1536" height="2" y="912" fill="#000" fill-opacity="0.15" />
  <rect width="1536" height="2" y="916" fill="#000" fill-opacity="0.15" />
  <rect width="1536" height="2" y="920" fill="#000" fill-opacity="0.15" />
  <rect width="1536" height="2" y="924" fill="#000" fill-opacity="0.15" />
  <rect width="1536" height="2" y="928" fill="#000" fill-opacity="0.15" />
  <rect width="1536" height="2" y="932" fill="#000" fill-opacity="0.15" />
  <rect width="1536" height="2" y="936" fill="#000" fill-opacity="0.15" />
  <rect width="1536" height="2" y="940" fill="#000" fill-opacity="0.15" />
  <rect width="1536" height="2" y="944" fill="#000" fill-opacity="0.15" />
  <rect width="1536" height="2" y="948" fill="#000" fill-opacity="0.15" />
  <rect width="1536" height="2" y="952" fill="#000" fill-opacity="0.15" />
  <rect width="1536" height="2" y="956" fill="#000" fill-opacity="0.15" />
  <rect width="1536" height="2" y="960" fill="#000" fill-opacity="0.15" />
  <rect width="1536" height="2" y="964" fill="#000" fill-opacity="0.15" />
  <rect width="1536" height="2" y="968" fill="#000" fill-opacity="0.15" />
  <rect width="1536" height="2" y="972" fill="#000" fill-opacity="0.15" />
  <rect width="1536" height="2" y="976" fill="#000" fill-opacity="0.15" />
  <rect width="1536" height="2" y="980" fill="#000" fill-opacity="0.15" />
  <rect width="1536" height="2" y="984" fill="#000" fill-opacity="0.15" />
  <rect width="1536" height="2" y="988" fill="#000" fill-opacity="0.15" />
  <rect width="1536" height="2" y="992" fill="#000" fill-opacity="0.15" />
  <rect width="1536" height="2" y="996" fill="#000" fill-opacity="0.15" />
  <rect width="1536" height="2" y="1000" fill="#000" fill-opacity="0.15" />
  <rect width="1536" height="2" y="1004" fill="#000" fill-opacity="0.15" />
  <rect width="1536" height="2" y="1008" fill="#000" fill-opacity="0.15" />
  <rect width="1536" height="2" y="1012" fill="#000" fill-opacity="0.15" />
  <rect width="1536" height="2" y="1016" fill="#000" fill-opacity="0.15" />
  <rect width="1536" height="2" y="1020" fill="#000" fill-opacity="0.15" />

  
  <rect x="100" y="60" width="4" height="4" fill="#ffffff" fill-opacity="0.9" />
  <rect x="200" y="30" width="4" height="4" fill="#ffffff" fill-opacity="0.7" />
  <rect x="350" y="80" width="4" height="4" fill="#ffffff" fill-opacity="0.8" />
  <rect x="450" y="20" width="6" height="6" fill="#ffffff" fill-opacity="0.9" />
  <rect x="580" y="50" width="4" height="4" fill="#ffffaa" fill-opacity="0.8" />
  <rect x="700" y="30" width="4" height="4" fill="#ffffff" fill-opacity="0.7" />
  <rect x="820" y="70" width="6" height="6" fill="#ffffff" fill-opacity="0.9" />
  <rect x="950" y="25" width="4" height="4" fill="#aaffff" fill-opacity="0.8" />
  <rect x="1080" y="60" width="4" height="4" fill="#ffffff" fill-opacity="0.7" />
  <rect x="1200" y="40" width="4" height="4" fill="#ffffff" fill-opacity="0.9" />
  <rect x="1350" y="70" width="6" height="6" fill="#ffffaa" fill-opacity="0.8" />
  <rect x="1450" y="30" width="4" height="4" fill="#ffffff" fill-opacity="0.7" />
  <rect x="160" y="140" width="4" height="4" fill="#ffffff" fill-opacity="0.5" />
  <rect x="500" y="120" width="4" height="4" fill="#ffffff" fill-opacity="0.6" />
  <rect x="900" y="110" width="4" height="4" fill="#ffffff" fill-opacity="0.5" />
  <rect x="1300" y="130" width="4" height="4" fill="#ffffff" fill-opacity="0.6" />

  
  <rect x="1340" y="80" width="96" height="96" rx="0" fill="none" />
  
  <rect x="1364" y="84" width="48" height="8" fill="#e8c060" />
  <rect x="1356" y="92" width="64" height="8" fill="#e8c060" />
  <rect x="1348" y="100" width="80" height="8" fill="#e8c060" />
  <rect x="1348" y="108" width="80" height="8" fill="#d4a840" />
  <rect x="1348" y="116" width="80" height="8" fill="#e8c060" />
  <rect x="1356" y="124" width="64" height="8" fill="#d4a840" />
  <rect x="1364" y="132" width="48" height="8" fill="#e8c060" />
  
  <rect x="1372" y="100" width="8" height="8" fill="#c49030" />
  <rect x="1390" y="116" width="8" height="8" fill="#c49030" />

  
  
  <rect x="900" y="720" width="636" height="304" fill="#2a1a0a" />
  
  <rect x="1100" y="680" width="200" height="40" fill="#3d2510" />
  <rect x="1060" y="700" width="300" height="40" fill="#3d2510" />
  <rect x="1020" y="720" width="360" height="40" fill="#3d2510" />
  
  <rect x="1250" y="660" width="150" height="40" fill="#4a2e14" />
  <rect x="1220" y="680" width="200" height="40" fill="#4a2e14" />
  
  
  <rect x="1050" y="620" width="60" height="60" fill="#7a5530" />
  <rect x="1050" y="560" width="60" height="60" fill="#6b4a28" />
  <rect x="1050" y="500" width="60" height="60" fill="#7a5530" />
  <rect x="1110" y="640" width="60" height="40" fill="#5a3e1e" />
  <rect x="1170" y="600" width="60" height="80" fill="#7a5530" />
  <rect x="1170" y="540" width="60" height="60" fill="#6b4a28" />
  <rect x="1230" y="640" width="60" height="40" fill="#7a5530" />
  <rect x="1290" y="620" width="60" height="60" fill="#6b4a28" />
  <rect x="1350" y="600" width="80" height="80" fill="#7a5530" />
  <rect x="1350" y="540" width="80" height="60" fill="#6b4a28" />
  <rect x="1430" y="620" width="80" height="60" fill="#7a5530" />
  <rect x="1430" y="560" width="80" height="60" fill="#5a3e1e" />

  
  <rect x="0" y="760" width="1536" height="264" fill="#1e1206" />
  <rect x="0" y="760" width="1536" height="16" fill="#2d1a09" />
  
  <rect x="0" y="776" width="1536" height="8" fill="#3a2010" />
  <rect x="0" y="784" width="1536" height="8" fill="#2a1608" />

  
  <rect x="0" y="700" width="500" height="300" fill="#2a1a0a" />
  <rect x="0" y="660" width="300" height="40" fill="#3d2510" />
  <rect x="0" y="680" width="400" height="40" fill="#3d2510" />
  <rect x="40" y="620" width="60" height="80" fill="#7a5530" />
  <rect x="100" y="640" width="60" height="60" fill="#6b4a28" />
  <rect x="160" y="600" width="60" height="100" fill="#7a5530" />
  <rect x="220" y="640" width="60" height="60" fill="#5a3e1e" />
  <rect x="280" y="620" width="60" height="80" fill="#7a5530" />
  <rect x="340" y="660" width="60" height="40" fill="#6b4a28" />
  <rect x="400" y="640" width="60" height="60" fill="#7a5530" />

  
  
  <rect x="540" y="580" width="80" height="80" fill="#8b6535" stroke="#6b4a25" stroke-width="4" />
  <rect x="540" y="660" width="80" height="80" fill="#7a5530" stroke="#6b4a25" stroke-width="4" />
  <rect x="540" y="740" width="80" height="40" fill="#6b4a28" stroke="#6b4a25" stroke-width="4" />
  
  <rect x="620" y="620" width="80" height="80" fill="#8b6535" stroke="#6b4a25" stroke-width="4" />
  <rect x="620" y="700" width="80" height="80" fill="#7a5530" stroke="#6b4a25" stroke-width="4" />
  
  <rect x="700" y="560" width="80" height="80" fill="#7a5530" stroke="#6b4a25" stroke-width="4" />
  <rect x="700" y="640" width="80" height="80" fill="#8b6535" stroke="#6b4a25" stroke-width="4" />
  <rect x="700" y="720" width="80" height="40" fill="#6b4a28" stroke="#6b4a25" stroke-width="4" />
  
  <rect x="550" y="590" width="16" height="8" fill="#aaaaaa" />
  <rect x="580" y="600" width="8" height="16" fill="#cc4444" />
  <rect x="710" y="570" width="16" height="8" fill="#44aacc" />
  <rect x="630" y="630" width="16" height="8" fill="#aaaa44" />

  
  
  
  
  <rect x="370" y="830" width="20" height="80" fill="#4a3a20" />
  <rect x="380" y="820" width="80" height="100" fill="#5a4a2a" rx="0" />
  
  <rect x="380" y="820" width="80" height="12" fill="#3a2a10" />
  <rect x="380" y="840" width="80" height="12" fill="#3a2a10" />
  <rect x="380" y="860" width="80" height="12" fill="#3a2a10" />
  <rect x="380" y="880" width="80" height="12" fill="#3a2a10" />
  
  <rect x="490" y="820" width="80" height="100" fill="#5a4a2a" />
  <rect x="500" y="820" width="80" height="12" fill="#3a2a10" />
  <rect x="500" y="840" width="80" height="12" fill="#3a2a10" />
  <rect x="500" y="860" width="80" height="12" fill="#3a2a10" />
  <rect x="500" y="880" width="80" height="12" fill="#3a2a10" />
  
  <rect x="384" y="826" width="20" height="20" fill="#2a1a08" />
  <rect x="440" y="826" width="20" height="20" fill="#2a1a08" />
  <rect x="496" y="826" width="20" height="20" fill="#2a1a08" />
  <rect x="384" y="886" width="20" height="20" fill="#2a1a08" />
  <rect x="440" y="886" width="20" height="20" fill="#2a1a08" />
  <rect x="496" y="886" width="20" height="20" fill="#2a1a08" />

  
  <rect x="390" y="680" width="180" height="160" fill="#c8942a" rx="0" />
  
  <rect x="390" y="720" width="180" height="8" fill="#a07020" />
  <rect x="390" y="780" width="180" height="8" fill="#a07020" />
  
  <rect x="398" y="696" width="12" height="12" fill="#e8b040" />
  <rect x="550" y="696" width="12" height="12" fill="#e8b040" />
  <rect x="398" y="820" width="12" height="12" fill="#e8b040" />
  <rect x="550" y="820" width="12" height="12" fill="#e8b040" />
  
  <rect x="420" y="740" width="40" height="24" fill="#a07020" />
  <rect x="424" y="744" width="32" height="16" fill="#6a4810" />
  <rect x="500" y="740" width="40" height="24" fill="#a07020" />
  <rect x="504" y="744" width="32" height="16" fill="#c8942a" />

  
  <rect x="450" y="630" width="60" height="60" fill="#b08030" />
  <rect x="458" y="622" width="44" height="12" fill="#c8942a" />

  
  
  <rect x="420" y="530" width="120" height="100" fill="#c8942a" />
  
  <rect x="424" y="510" width="48" height="80" fill="#b08030" />
  <rect x="428" y="514" width="40" height="72" fill="#1a1a2e" />
  
  <rect x="432" y="520" width="32" height="32" fill="#ff9500" />
  <rect x="436" y="524" width="24" height="24" fill="#ffcc44" />
  <rect x="440" y="528" width="16" height="16" fill="#ffffff" />
  <rect x="440" y="528" width="8" height="8" fill="#ffee88" />
  
  <rect x="488" y="510" width="48" height="80" fill="#b08030" />
  <rect x="492" y="514" width="40" height="72" fill="#1a1a2e" />
  
  <rect x="496" y="520" width="32" height="32" fill="#ff9500" />
  <rect x="500" y="524" width="24" height="24" fill="#ffcc44" />
  <rect x="504" y="528" width="16" height="16" fill="#ffffff" />
  <rect x="504" y="528" width="8" height="8" fill="#ffee88" />
  
  <rect x="424" y="502" width="48" height="8" fill="#ff9500" fill-opacity="0.5" />
  <rect x="488" y="502" width="48" height="8" fill="#ff9500" fill-opacity="0.5" />
  
  <rect x="420" y="526" width="120" height="8" fill="#d4a030" />
  
  <rect x="408" y="534" width="16" height="32" fill="#b08030" />
  <rect x="536" y="534" width="16" height="32" fill="#b08030" />

  
  
  <rect x="318" y="700" width="80" height="20" fill="#b08030" />
  <rect x="298" y="710" width="24" height="40" fill="#b08030" />
  <rect x="280" y="720" width="28" height="20" fill="#8a6020" />
  
  <rect x="562" y="700" width="80" height="20" fill="#b08030" />
  <rect x="638" y="710" width="24" height="40" fill="#b08030" />
  <rect x="658" y="720" width="28" height="20" fill="#8a6020" />

  
  <rect x="380" y="900" width="220" height="24" fill="#ff9500" fill-opacity="0.1" />

  
  
  
  <rect x="850" y="480" width="160" height="240" fill="#e8f0f8" />
  <rect x="840" y="500" width="180" height="200" fill="#eef4fc" />
  <rect x="830" y="520" width="200" height="160" fill="#f0f6ff" />
  <rect x="838" y="508" width="184" height="8" fill="#d0dce8" />
  <rect x="838" y="700" width="184" height="8" fill="#d0dce8" />
  
  <rect x="850" y="460" width="160" height="40" fill="#e8f0f8" />
  <rect x="860" y="444" width="140" height="24" fill="#e0e8f0" />
  <rect x="870" y="432" width="120" height="20" fill="#e8f0f8" />
  
  <rect x="850" y="712" width="160" height="32" fill="#e0e8f0" />
  <rect x="860" y="736" width="140" height="20" fill="#d0dce8" />

  
  
  <rect x="868" y="530" width="48" height="32" fill="#00ccff" />
  <rect x="872" y="534" width="40" height="24" fill="#00eeff" />
  <rect x="876" y="538" width="32" height="16" fill="#aaffff" />
  
  <rect x="944" y="530" width="48" height="32" fill="#00ccff" />
  <rect x="948" y="534" width="40" height="24" fill="#00eeff" />
  <rect x="952" y="538" width="32" height="16" fill="#aaffff" />
  
  <rect x="860" y="524" width="64" height="8" fill="#00ccff" fill-opacity="0.4" />
  <rect x="936" y="524" width="64" height="8" fill="#00ccff" fill-opacity="0.4" />
  
  <rect x="810" y="580" width="32" height="80" fill="#d8e4f0" />
  <rect x="1018" y="580" width="32" height="80" fill="#d8e4f0" />
  
  <rect x="840" y="760" width="180" height="16" fill="#00ccff" fill-opacity="0.3" />
  <rect x="860" y="776" width="140" height="8" fill="#00ccff" fill-opacity="0.15" />
  
  <rect x="900" y="610" width="60" height="60" fill="#00cc44" fill-opacity="0.2" />
  <rect x="908" y="618" width="44" height="44" fill="#1a3a1a" />
  <rect x="916" y="626" width="28" height="28" fill="#00cc44" fill-opacity="0.6" />

  
  <rect x="680" y="430" width="16" height="16" fill="#ff4466" />
  <rect x="696" y="414" width="16" height="16" fill="#ff4466" />
  <rect x="680" y="414" width="16" height="16" fill="#ff4466" />
  <rect x="664" y="414" width="16" height="16" fill="#ff4466" />
  <rect x="648" y="430" width="16" height="16" fill="#ff4466" />
  <rect x="664" y="430" width="16" height="16" fill="#ff4466" />
  <rect x="696" y="430" width="16" height="16" fill="#ff4466" />
  <rect x="712" y="430" width="16" height="16" fill="#ff4466" />
  <rect x="680" y="446" width="16" height="16" fill="#ff4466" />
  <rect x="696" y="446" width="16" height="16" fill="#ff4466" />
  <rect x="664" y="446" width="16" height="16" fill="#ff4466" />
  <rect x="680" y="462" width="16" height="16" fill="#ff4466" />
  <rect x="696" y="462" width="16" height="16" fill="#ff4466" />
  <rect x="680" y="478" width="16" height="16" fill="#ff4466" />

  
  <rect x="750" y="120" width="12" height="48" fill="#ffee44" fill-opacity="0.7" />
  <rect x="726" y="144" width="60" height="12" fill="#ffee44" fill-opacity="0.7" />
  <rect x="738" y="132" width="12" height="12" fill="#ffee44" fill-opacity="0.7" />
  <rect x="762" y="132" width="12" height="12" fill="#ffee44" fill-opacity="0.7" />
  <rect x="738" y="156" width="12" height="12" fill="#ffee44" fill-opacity="0.7" />
  <rect x="762" y="156" width="12" height="12" fill="#ffee44" fill-opacity="0.7" />

  
  <rect x="60" y="880" width="200" height="60" fill="#ff9500" fill-opacity="0.15" stroke="#ff9500" stroke-width="4" />
  <text x="160" y="920" font-family="monospace" font-size="32" font-weight="bold" fill="#ff9500" text-anchor="middle">2007</text>

  
  <rect x="60" y="820" width="200" height="50" fill="#00ccff" fill-opacity="0.1" stroke="#00ccff" stroke-width="3" />
  <text x="160" y="855" font-family="monospace" font-size="28" font-weight="bold" fill="#00ccff" text-anchor="middle">PIXAR</text>

  
  <rect x="0" y="0" width="1536" height="16" fill="#ff9500" fill-opacity="0.6" />
  <rect x="0" y="16" width="1536" height="8" fill="#ffcc00" fill-opacity="0.4" />
  
  <rect x="0" y="1008" width="1536" height="16" fill="#ff9500" fill-opacity="0.6" />
  <rect x="0" y="1000" width="1536" height="8" fill="#ffcc00" fill-opacity="0.4" />

  
  
  <rect x="0" y="0" width="1536" height="420" fill="#0d0d1a" fill-opacity="0.55" />

  
  <rect x="80" y="50" width="280" height="44" fill="#ff9500" fill-opacity="0.9" />
  <text x="220" y="81" font-family="monospace, 'Courier New', Courier" font-size="26" font-weight="bold" fill="#0d0d1a" text-anchor="middle" letter-spacing="3">ARTS &amp; CULTURE</text>

  
  <text x="80" y="180" font-family="monospace, 'Courier New', Courier" font-size="96" font-weight="bold" fill="#ff9500" letter-spacing="-2">WALL-E</text>
  
  <text x="84" y="184" font-family="monospace, 'Courier New', Courier" font-size="96" font-weight="bold" fill="#ff6600" fill-opacity="0.4" letter-spacing="-2">WALL-E</text>

  
  <text x="80" y="265" font-family="monospace, 'Courier New', Courier" font-size="52" font-weight="bold" fill="#ffcc44" letter-spacing="2">FIRST REVEALED</text>
  
  <text x="80" y="330" font-family="monospace, 'Courier New', Courier" font-size="52" font-weight="bold" fill="#ffcc44" letter-spacing="2">TO THE PUBLIC</text>
  
  <text x="80" y="390" font-family="monospace, 'Courier New', Courier" font-size="36" fill="#00ccff" letter-spacing="4">[ 2007 ]  PIXAR ANIMATION STUDIOS</text>

  
  <rect x="360" y="952" width="180" height="40" fill="#000" fill-opacity="0.5" />
  <text x="450" y="978" font-family="monospace" font-size="22" fill="#ff9500" text-anchor="middle" font-weight="bold">WALL-E</text>

  
  <rect x="840" y="952" width="180" height="40" fill="#000" fill-opacity="0.5" />
  <text x="930" y="978" font-family="monospace" font-size="22" fill="#00ccff" text-anchor="middle" font-weight="bold">EVE</text>

  
  <rect x="0" y="755" width="1536" height="28" fill="#ff4400" fill-opacity="0.2" />
  <text x="768" y="775" font-family="monospace" font-size="20" fill="#ff9966" text-anchor="middle" letter-spacing="6">★  EARTH  •  700 YEARS LATER  ★</text>

</svg>